<svg version="1.2" xmlns="http://www.w3.org/2000/svg" viewBox="0 0 1455 700" width="1455" height="700">
	<title>dark projet-svg</title>
	<defs>
		<linearGradient id="g1" x2="1" gradientUnits="userSpaceOnUse" gradientTransform="matrix(-41.272,21.91,-7.607,-14.329,1222.241,547.566)">
			<stop offset="0" stop-color="#ffffff"/>
			<stop offset="1" stop-color="#878787"/>
		</linearGradient>
		<linearGradient id="g2" x2="1" gradientUnits="userSpaceOnUse" gradientTransform="matrix(-11.791,-16.148,8.025,-5.86,1452.973,568.639)">
			<stop offset=".006" stop-color="#b0b0af"/>
			<stop offset=".764" stop-color="#4c4c4b"/>
			<stop offset="1" stop-color="#1d1d1b"/>
		</linearGradient>
		<linearGradient id="g3" x2="1" gradientUnits="userSpaceOnUse" gradientTransform="matrix(195.334,0,0,48.16,1147.053,481.207)">
			<stop offset="0" stop-color="#87a8cb"/>
			<stop offset=".224" stop-color="#87a8cb"/>
			<stop offset="1" stop-color="#b7d0de"/>
		</linearGradient>
		<linearGradient id="g4" x2="1" gradientUnits="userSpaceOnUse" gradientTransform="matrix(2.038,-2.717,2.6,1.95,1345.323,519.39)">
			<stop offset="0" stop-color="#00a3df"/>
			<stop offset="1" stop-color="#0070a0"/>
		</linearGradient>
		<linearGradient id="g5" x2="1" gradientUnits="userSpaceOnUse" gradientTransform="matrix(8.025,16.05,-14.44,7.22,1318.691,613.027)">
			<stop offset="0" stop-color="#1d1d1b"/>
			<stop offset=".528" stop-color="#c3c3c3"/>
			<stop offset="1" stop-color="#4c4c4b"/>
		</linearGradient>
		<linearGradient id="g6" x2="1" gradientUnits="userSpaceOnUse" gradientTransform="matrix(7.477,14.954,-15.807,7.903,1307.499,581.344)">
			<stop offset="0" stop-color="#1d1d1b"/>
			<stop offset=".528" stop-color="#c3c3c3"/>
			<stop offset="1" stop-color="#4c4c4b"/>
		</linearGradient>
		<linearGradient id="g7" x2="1" gradientUnits="userSpaceOnUse" gradientTransform="matrix(15.804,-1.784,5.135,45.487,1280.54,629.688)">
			<stop offset=".528" stop-color="#c3c3c3"/>
			<stop offset="1" stop-color="#3c3c3b"/>
		</linearGradient>
		<linearGradient id="g8" x2="1" gradientUnits="userSpaceOnUse" gradientTransform="matrix(15.798,-1.784,.68,6.024,1281.923,641.893)">
			<stop offset=".528" stop-color="#c3c3c3"/>
			<stop offset="1" stop-color="#3c3c3b"/>
		</linearGradient>
		<linearGradient id="g9" x2="1" gradientUnits="userSpaceOnUse" gradientTransform="matrix(-6.115,12.909,-8.112,-3.843,1289.239,585.68)">
			<stop offset="0" stop-color="#1d1d1b"/>
			<stop offset=".528" stop-color="#c3c3c3"/>
			<stop offset="1" stop-color="#4c4c4b"/>
		</linearGradient>
		<linearGradient id="g10" x2="1" gradientUnits="userSpaceOnUse" gradientTransform="matrix(7.478,4.674,-16.271,26.032,1268.897,613.015)">
			<stop offset=".528" stop-color="#c3c3c3"/>
			<stop offset="1" stop-color="#3c3c3b"/>
		</linearGradient>
		<linearGradient id="g11" x2="1" gradientUnits="userSpaceOnUse" gradientTransform="matrix(5.278,47.838,-15.076,1.663,1439.114,564.829)">
			<stop offset=".022" stop-color="#c3c3c3"/>
			<stop offset=".528" stop-color="#ffffff"/>
			<stop offset="1" stop-color="#c3c3c3"/>
		</linearGradient>
		<linearGradient id="g12" x2="1" gradientUnits="userSpaceOnUse" gradientTransform="matrix(5.117,10.235,-6.9,3.45,1442.747,571.571)">
			<stop offset="0" stop-color="#1d1d1b"/>
			<stop offset=".528" stop-color="#c3c3c3"/>
			<stop offset="1" stop-color="#4c4c4b"/>
		</linearGradient>
		<linearGradient id="g13" x2="1" gradientUnits="userSpaceOnUse" gradientTransform="matrix(8.834,3.397,-4.891,12.718,1443.27,590.452)">
			<stop offset="0" stop-color="#1d1d1b"/>
			<stop offset=".528" stop-color="#c3c3c3"/>
			<stop offset="1" stop-color="#4c4c4b"/>
		</linearGradient>
		<linearGradient id="g14" x2="1" gradientUnits="userSpaceOnUse" gradientTransform="matrix(-2.277,-5.313,2.505,-1.073,1444.694,612.607)">
			<stop offset=".528" stop-color="#c3c3c3"/>
			<stop offset="1" stop-color="#1d1d1b"/>
		</linearGradient>
		<linearGradient id="g15" x2="1" gradientUnits="userSpaceOnUse" gradientTransform="matrix(8.491,-3.226,7.607,20.021,1430.439,574.388)">
			<stop offset=".528" stop-color="#c3c3c3"/>
			<stop offset="1" stop-color="#000000"/>
		</linearGradient>
		<linearGradient id="g16" x2="1" gradientUnits="userSpaceOnUse" gradientTransform="matrix(4.754,-2.161,3.425,7.535,1431.381,596.18)">
			<stop offset=".291" stop-color="#c3c3c3"/>
			<stop offset="1" stop-color="#000000"/>
		</linearGradient>
		<linearGradient id="g17" x2="1" gradientUnits="userSpaceOnUse" gradientTransform="matrix(69.815,44.844,-45.154,70.297,1039.218,547.118)">
			<stop offset="0" stop-color="#00a3df"/>
			<stop offset="1" stop-color="#007ec4"/>
		</linearGradient>
		<linearGradient id="g18" x2="1" gradientUnits="userSpaceOnUse" gradientTransform="matrix(-2.549,24.466,-65.97,-6.873,1174.762,592.415)">
			<stop offset="0" stop-color="#00a3df"/>
			<stop offset=".697" stop-color="#00486d"/>
			<stop offset="1" stop-color="#4c4c4b"/>
		</linearGradient>
		<linearGradient id="g19" x2="1" gradientUnits="userSpaceOnUse" gradientTransform="matrix(-97.214,0,0,-6.406,1263.46,624.925)">
			<stop offset="0" stop-color="#ffffff"/>
			<stop offset="1" stop-color="#b1b1b1"/>
		</linearGradient>
		<radialGradient id="g20" cx="0" cy="0" r="1" gradientUnits="userSpaceOnUse" gradientTransform="matrix(-8.923,0,0,-8.923,1345.64,498.536)">
			<stop offset="0" stop-color="#007ec4"/>
			<stop offset="1" stop-color="#00a3df"/>
		</radialGradient>
		<linearGradient id="g21" x2="1" gradientUnits="userSpaceOnUse" gradientTransform="matrix(-6.894,14.171,-18.666,-9.081,1369.633,489.609)">
			<stop offset="0" stop-color="#00a3df"/>
			<stop offset="1" stop-color="#007ec4"/>
		</linearGradient>
		<linearGradient id="g22" x2="1" gradientUnits="userSpaceOnUse" gradientTransform="matrix(-2.467,-29.11,29.67,-2.514,1378.923,509.098)">
			<stop offset="0" stop-color="#ffffff"/>
			<stop offset="1" stop-color="#1d1d1b"/>
		</linearGradient>
		<linearGradient id="g23" x2="1" gradientUnits="userSpaceOnUse" gradientTransform="matrix(-2.467,-29.11,20.69,-1.753,1378.923,509.098)">
			<stop offset="0" stop-color="#ffffff"/>
			<stop offset="1" stop-color="#1d1d1b"/>
		</linearGradient>
		<radialGradient id="g24" cx="0" cy="0" r="1" gradientUnits="userSpaceOnUse" gradientTransform="matrix(-12.444,0,0,-12.444,1296.864,603.217)">
			<stop offset="0" stop-color="#4c4c4b"/>
			<stop offset="1" stop-color="#d4d4d4"/>
		</radialGradient>
		<radialGradient id="g25" cx="0" cy="0" r="1" gradientUnits="userSpaceOnUse" gradientTransform="matrix(-3.19,.071,-0.071,-3.19,1440.06,584.44)">
			<stop offset="0" stop-color="#4c4c4b"/>
			<stop offset="1" stop-color="#d4d4d4"/>
		</radialGradient>
		<linearGradient id="g26" x2="1" gradientUnits="userSpaceOnUse" gradientTransform="matrix(30.577,-5.125,4.392,26.207,1039.962,557.87)">
			<stop offset="0" stop-color="#ffffff"/>
			<stop offset="1" stop-color="#878787"/>
		</linearGradient>
		<linearGradient id="g27" x2="1" gradientUnits="userSpaceOnUse" gradientTransform="matrix(54.639,-35.575,35.541,54.586,1215.467,601.858)">
			<stop offset="0" stop-color="#092645"/>
			<stop offset=".539" stop-color="#a9acb3"/>
		</linearGradient>
		<linearGradient id="g28" x2="1" gradientUnits="userSpaceOnUse" gradientTransform="matrix(-14.242,-12.853,8.06,-8.931,1039.276,598.412)">
			<stop offset=".004" stop-color="#092645"/>
			<stop offset=".539" stop-color="#a9acb3"/>
		</linearGradient>
	</defs>
	<style>
		tspan { white-space:pre } 
		.s0 { fill: #a7daee } 
		.s1 { opacity: .6;fill: #092645 } 
		.s2 { fill: #092645 } 
		.s3 { fill: #9b9b9b } 
		.s4 { fill: #c9c9c9 } 
		.s5 { fill: #a9bdd5;stroke: #092645;stroke-miterlimit:10 } 
		.s6 { fill: #cecece } 
		.s7 { fill: #ffffff;stroke: #092645;stroke-miterlimit:10 } 
		.s8 { fill: #373736 } 
		.s9 { fill: #000000 } 
		.s10 { fill: #ffffff } 
		.s11 { fill: #ff1200 } 
		.s12 { fill: #092035 } 
		.s13 { fill: #0e304f } 
		.s14 { fill: #ebe8e8 } 
		.s15 { fill: #c4c1c1 } 
		.s16 { fill: #8b8180 } 
		.s17 { fill: #f4aaae } 
		.s18 { fill: #e2484d } 
		.s19 { fill: #ba3c38 } 
		.s20 { fill: #e96d6e } 
		.s21 { fill: #d9544b } 
		.s22 { fill: none;stroke: #e96d6e;stroke-miterlimit:10 } 
		.s23 { fill: #a9bdd5 } 
		.s24 { fill: #262626 } 
		.s25 { opacity: .8;fill: #092645 } 
		.s26 { opacity: .5;fill: #092645 } 
		.s27 { fill: none;stroke: #092645;stroke-miterlimit:10 } 
		.s28 { fill: #e8e8ea;stroke: #092645;stroke-miterlimit:10 } 
		.s29 { fill: #c6c6c7;stroke: #092645;stroke-miterlimit:10;stroke-width: .4 } 
		.s30 { fill: #213d56 } 
		.s31 { fill: #1d1d1b } 
		.s32 { fill: #c6c6c7 } 
		.s33 { fill: none;stroke: #092645;stroke-linecap: round;stroke-linejoin: round } 
		.s34 { fill: #1c5475 } 
		.s35 { fill: #4799c6 } 
		.s36 { opacity: .2;fill: url(#g1) } 
		.s37 { opacity: .7;fill: none;stroke: #a9acb3;stroke-linecap: round;stroke-linejoin: round;stroke-width: 3.6 } 
		.s38 { fill: url(#g2) } 
		.s39 { opacity: .7;fill: none;stroke: #a9acb3;stroke-linecap: round;stroke-linejoin: round;stroke-width: 2.2 } 
		.s40 { opacity: .2;fill: #a9acb3 } 
		.s41 { opacity: .7;fill: #a9acb3 } 
		.s42 { opacity: .2;fill: #ffffff } 
		.s43 { fill: url(#g3) } 
		.s44 { fill: url(#g4) } 
		.s45 { fill: #363636 } 
		.s46 { fill: url(#g5) } 
		.s47 { fill: url(#g6) } 
		.s48 { fill: #333333 } 
		.s49 { fill: url(#g7) } 
		.s50 { fill: url(#g8) } 
		.s51 { fill: url(#g9) } 
		.s52 { fill: none;stroke: #1d1d1b;stroke-width: 3.6 } 
		.s53 { fill: url(#g10) } 
		.s54 { fill: none;stroke: #1d1d1b;stroke-width: 7.3 } 
		.s55 { fill: url(#g11) } 
		.s56 { fill: url(#g12) } 
		.s57 { fill: url(#g13) } 
		.s58 { fill: url(#g14) } 
		.s59 { fill: url(#g15) } 
		.s60 { fill: url(#g16) } 
		.s61 { fill: url(#g17) } 
		.s62 { fill: url(#g18) } 
		.s63 { fill: url(#g19) } 
		.s64 { fill: url(#g20) } 
		.s65 { fill: url(#g21) } 
		.s66 { opacity: .5;fill: #848b90 } 
		.s67 { fill: url(#g22) } 
		.s68 { fill: url(#g23) } 
		.s69 { fill: url(#g24) } 
		.s70 { fill: url(#g25) } 
		.s71 { opacity: .6;fill: #a9acb3 } 
		.s72 { opacity: .6;fill: url(#g26) } 
		.s73 { fill: url(#g27) } 
		.s74 { fill: url(#g28) } 
		.t75 { font-size: 16px;fill: #7b7b7b;font-weight: 400;font-family: "Damion", "Damion" } 
		.t76 { font-size: 23px;fill: #878787;font-weight: 400;font-family: "Damion", "Damion" } 
	</style>
	<g>
		<g>
			<path class="s0" d="m137.8 429.2l-43.4-43.4 89.1-93.6 78.9-18.6 5.5 109.1z"/>
			<path class="s1" d="m14.6 538.1c6.7-6.9 20.8-5.5 29.6-5.9 33.1-1.5 66.1-4.5 99.3-4.5 21 0 41.9-2.1 62.8-2.1 3.1 0 39.6 0 45.6 0 20.5 0 41.7 1.6 61.8-3.2 9.4-2.2 18.8-3.8 28.5-2.7 16.7 2 32.3 5.2 49.3 5.4 19.3 0.2 38.7-0.6 58-0.6 4.1 0 14.2 0 14.2 0 0 0 19.3 0 22.3 0 3.1 0 11.2 4.3 11.2 4.3l-342.5 28c0 0-54.1-1-55.7-1.1-24.6-0.4-52.4-1.8-75.7-10.6-2.3-0.9-8.8-2.9-9.2-5.8q-0.1-0.6 0.5-1.2z"/>
			<path fill-rule="evenodd" class="s2" d="m631.9 507.2l-131.7 0.3c-1.1-14 1.6-16 7.8-26.1 10.6-17.1 31.5-40.9 53.3-42.4 27.5-1.9 56.3 23.2 66.2 46.8 3.7 8.8 5.1 9.3 4.4 21.4z"/>
			<path class="s3" d="m566 461.8c25.8 0 46.7 20.9 46.7 46.7 0 25.8-20.9 46.7-46.7 46.7-25.8 0-46.8-20.9-46.8-46.7 0-25.8 21-46.7 46.8-46.7z"/>
			<path class="s2" d="m566 472.7c19.8 0 35.8 16 35.8 35.8 0 19.8-16 35.8-35.8 35.8-19.8 0-35.9-16-35.9-35.8 0-19.8 16.1-35.8 35.9-35.8z"/>
			<path fill-rule="evenodd" class="s4" d="m566 478.8c16.4 0 29.7 13.3 29.7 29.7 0 16.4-13.3 29.7-29.7 29.7-16.4 0-29.7-13.3-29.7-29.7 0-16.4 13.3-29.7 29.7-29.7z"/>
			<g>
				<g>
					<path class="s2" d="m537.9 508l5.7 2c0 2.8 0.9 5.9 2.4 8.4l-3.9 4.9 8.8-7.8c2.3-2.1 1.6-4.9-1-5.3z"/>
					<path fill-rule="evenodd" class="s2" d="m557.2 481.3l3.4 5c2.7-0.7 5.9-0.6 8.7 0.2l3.8-5-5.4 10.5c-1.4 2.8-4.3 2.7-5.4 0.4z"/>
					<path class="s2" d="m539.2 499.1h6c0.9-2.6 2.9-5.2 5.1-7l-1.9-6 5.5 10.4c1.5 2.7-0.2 5.1-2.7 4.6z"/>
					<path class="s2" d="m547.8 530.1l4.9-3.6c2.3 1.6 5.4 2.6 8.3 2.8l1.8 6-1.5-11.7c-0.3-3.1-3.1-4.1-4.9-2.2z"/>
					<path class="s2" d="m591.3 519.6l-4.5-4c1.1-2.6 1.4-5.8 1-8.6l5.5-3.1-11.1 3.9c-3 1-3.4 3.9-1.2 5.3z"/>
					<path class="s2" d="m585.1 528l-5.5-2.7c-1.9 2-4.8 3.4-7.6 4.1l-0.8 6.2-0.5-11.7c-0.2-3.1 2.4-4.6 4.4-3z"/>
					<path class="s2" d="m590.5 494.8l-5.9 1.4c-1.5-2.4-3.9-4.5-6.5-5.7l0.6-6.3-3.1 11.4c-0.9 2.9 1.3 4.9 3.6 3.9z"/>
				</g>
				<g>
					<path fill-rule="evenodd" class="s2" d="m557.7 512.4c1-1 2.7-0.9 3.7 0.1 0.9 1.1 0.9 2.8-0.2 3.7-1.1 1-2.7 0.9-3.7-0.1-1-1.1-0.9-2.7 0.2-3.7z"/>
					<path class="s2" d="m573.1 505.4c1-1 2.7-0.9 3.7 0.2 1 1 0.9 2.7-0.2 3.7-1 0.9-2.7 0.8-3.7-0.2-0.9-1.1-0.9-2.7 0.2-3.7z"/>
					<path class="s2" d="m566 498c1-1 2.7-0.9 3.7 0.2 0.9 1 0.9 2.7-0.2 3.7-1.1 0.9-2.7 0.9-3.7-0.2-1-1.1-0.9-2.7 0.2-3.7z"/>
					<path class="s2" d="m556.6 501.9c1-1 2.7-0.9 3.7 0.2 0.9 1 0.9 2.7-0.2 3.7-1.1 1-2.7 0.9-3.7-0.2-1-1-0.9-2.7 0.2-3.7z"/>
					<path class="s2" d="m568 514.5c1-0.9 2.7-0.9 3.7 0.2 1 1.1 0.9 2.7-0.2 3.7-1 1-2.7 0.9-3.7-0.2-0.9-1-0.9-2.7 0.2-3.7z"/>
				</g>
			</g>
			<path fill-rule="evenodd" class="s2" d="m168.1 507.2l-131.8 0.3c-1.1-14-9.2-22.2-2.9-32.3 10.6-17.1 42.2-34.7 64-36.2 27.5-1.9 56.3 23.2 66.2 46.8 3.7 8.8 5.1 9.3 4.5 21.4z"/>
			<path class="s5" d="m102.1 461.8c25.8 0 46.7 20.9 46.7 46.7 0 25.8-20.9 46.7-46.7 46.7-25.8 0-46.7-20.9-46.7-46.7 0-25.8 20.9-46.7 46.7-46.7z"/>
			<path class="s2" d="m102.1 472.7c19.8 0 35.8 16 35.8 35.8 0 19.8-16 35.8-35.8 35.8-19.8 0-35.8-16-35.8-35.8 0-19.8 16-35.8 35.8-35.8z"/>
			<path fill-rule="evenodd" class="s4" d="m102.1 478.8c16.4 0 29.7 13.3 29.7 29.7 0 16.4-13.3 29.7-29.7 29.7-16.4 0-29.7-13.3-29.7-29.7 0-16.4 13.3-29.7 29.7-29.7z"/>
			<g>
				<g>
					<path class="s2" d="m74 508l5.8 2c-0.1 2.8 0.9 5.9 2.4 8.4l-3.9 4.9 8.7-7.8c2.4-2.1 1.6-4.9-0.9-5.3z"/>
					<path fill-rule="evenodd" class="s2" d="m93.3 481.3l3.5 5c2.6-0.7 5.9-0.6 8.6 0.2l3.8-5-5.4 10.5c-1.3 2.8-4.3 2.7-5.3 0.4z"/>
					<path class="s2" d="m75.3 499.1h6.1c0.9-2.6 2.8-5.2 5.1-7l-2-6 5.6 10.4c1.5 2.7-0.2 5.1-2.7 4.6z"/>
					<path class="s2" d="m84 530.1l4.9-3.6c2.2 1.6 5.3 2.6 8.2 2.8l1.8 6-1.4-11.7c-0.4-3.1-3.1-4.1-4.9-2.2z"/>
					<path class="s2" d="m127.5 519.6l-4.6-4c1.1-2.6 1.5-5.8 1-8.6l5.5-3.1-11.1 3.9c-2.9 1-3.3 3.9-1.1 5.3z"/>
					<path class="s2" d="m121.2 528l-5.4-2.7c-2 2-4.9 3.4-7.7 4.1l-0.8 6.2-0.5-11.7c-0.2-3.1 2.4-4.6 4.5-3z"/>
					<path class="s2" d="m126.7 494.8l-6 1.4c-1.4-2.4-3.9-4.5-6.5-5.7l0.6-6.3-3.1 11.4c-0.9 2.9 1.3 4.9 3.7 3.9z"/>
				</g>
				<g>
					<path fill-rule="evenodd" class="s2" d="m93.8 512.4c1.1-1 2.7-0.9 3.7 0.1 1 1.1 0.9 2.8-0.2 3.7-1 1-2.7 0.9-3.6-0.1-1-1.1-0.9-2.7 0.1-3.7z"/>
					<path class="s2" d="m109.2 505.4c1.1-1 2.8-0.9 3.7 0.2 1 1 0.9 2.7-0.1 3.7-1.1 0.9-2.8 0.8-3.7-0.2-1-1.1-0.9-2.7 0.1-3.7z"/>
					<path class="s2" d="m102.1 498c1.1-1 2.7-0.9 3.7 0.2 1 1 0.9 2.7-0.2 3.7-1 0.9-2.7 0.9-3.7-0.2-0.9-1.1-0.9-2.7 0.2-3.7z"/>
					<path class="s2" d="m92.7 501.9c1.1-1 2.7-0.9 3.7 0.2 1 1 0.9 2.7-0.2 3.7-1 1-2.7 0.9-3.6-0.2-1-1-1-2.7 0.1-3.7z"/>
					<path class="s2" d="m104.1 514.5c1.1-0.9 2.7-0.9 3.7 0.2 1 1.1 0.9 2.7-0.1 3.7-1.1 1-2.8 0.9-3.7-0.2-1-1-0.9-2.7 0.1-3.7z"/>
				</g>
			</g>
			<path fill-rule="evenodd" class="s6" d="m85.1 377.1c0 0 15.2 4.6 43.1-24.3 28.7-29.7 36-47.6 97.5-103.7h449c0 0 15.8 68.7 15.8 134.2 0 65.5 0 77.3 0 77.3h-80.7c-8.8-8.4-21.7-14.4-41-14.2-52.3 0.5-58.8 44.3-59.6 60.7l-0.3 0.2v5.8h-351c0-5.1 2.1-65.8-60.9-66.5-19.5-0.2-32.7 5.8-41.6 14h-50.4c0 0 0-14.2 0-26.5 0-12.2 28.4-36.4 80.1-57zm43.9 22.1l23.7-0.2c7.9 0 10.3-3.9 11.2-5.5 4.1-7.2 6.6-10.4 20.7-10.4h57.4l2.3 0.1c2.7 0.1 3 0 3.4-0.6 1.1-1.8 1.7-6.8 2.2-12l1.6-16.9c1.9-18.9 4.1-42.4 5.1-49.2q0.3-1.5 0.3-2.8 0-3.5-1.6-5.3c-1.5-1.7-4.1-2.6-8-2.6 0 0-62.9 0-64.8 0-8.1 9.3-54.7 62.4-60.7 69 0 0-4 36.4 7.2 36.4z"/>
			<path fill-rule="evenodd" class="s7" d="m85.1 377.1c0 0 15.2 4.6 43.1-24.3 28.7-29.7 36-47.6 97.5-103.7h449c0 0 15.8 68.7 15.8 134.2 0 65.5 0 77.3 0 77.3h-80.7c-8.8-8.4-21.7-14.4-41-14.2-52.3 0.5-58.8 44.3-59.6 60.7l-0.3 0.2v5.8h-351c0-5.1 2.1-65.8-60.9-66.5-19.5-0.2-32.7 5.8-41.6 14h-50.4c0 0 0-14.2 0-26.5 0-12.2 28.4-36.4 80.1-57zm43.9 22.1l23.7-0.2c7.9 0 10.3-3.9 11.2-5.5 4.1-7.2 6.6-10.4 20.7-10.4h57.4l2.3 0.1c2.7 0.1 3 0 3.4-0.6 1.1-1.8 1.7-6.8 2.2-12l1.6-16.9c1.9-18.9 4.1-42.4 5.1-49.2q0.3-1.5 0.3-2.8 0-3.5-1.6-5.3c-1.5-1.7-4.1-2.6-8-2.6 0 0-62.9 0-64.8 0-8.1 9.3-54.7 62.4-60.7 69 0 0-4 36.4 7.2 36.4z"/>
			<g>
				<path class="s2" d="m50 488.7c0 0-5.7 15.2-3.2 24.4 0 0-13-15.1-7.9-26.2 5-11.1 9.8-4.3 11.1 1.8z"/>
				<path class="s2" d="m504.3 468h-337.2c0 0-2.6 9 15.6 9 18.2 0 301.9 0 312 0 10.1 0.1 14.1-9 9.5-9z"/>
				<path class="s2" d="m55.4 460.6c0-0.1-16.4 16.4-8.6 52.4 0 0-28-1.6-31.2-4.8-3.2-3.2-0.3-3.9-0.3-6.3 0-2.3-3.7-2.8-3.7-7 0-4.2-7.4-5.8-9.4-11.1-2-5.4-2.2-14.3-2.2-14.3 0 0 0.7-8.1 5-9z"/>
				<path class="s8" d="m674.9 460.2v0.1l-0.1 0.2-0.1 0.1-0.2-0.1-0.1-0.2c0 0 0-4.1 0-59 0-61.9-1.3-92.8-12.4-152.2l0.5-0.1c11.1 59.4 12.4 90.4 12.4 152.3 0 54.9 0 59 0 59l-0.1 0.2-0.1 0.1-0.2-0.1-0.1-0.2v-0.1z"/>
				<path class="s9" d="m5 460.3h50.4v0.5h-50.4z"/>
				<g>
					<path fill-rule="evenodd" class="s9" d="m276.6 382.7c-0.9-0.9-1.3-2.7-1.3-6.3 0-0.3 0-78.9 0-79.2 0-1.8-0.1-3 0.8-3.9 1-1 2.8-1.3 6.3-1.3h370.2c7.4 0 9.8 4.5 11.4 21.1 1.7 17 3.6 57.6 3.6 62.8 0 5-1.1 7.7-7.1 7.7-0.5 0-379 0-379.4 0q-0.6 0-1.1 0c-1.5 0-2.6-0.1-3.4-0.9zm5.8-90.2c-3.3 0-5 0.4-5.8 1.2-0.7 0.7-0.7 1.9-0.7 3.5q0 0.4 0 0.8v78.4c0 3.4 0.4 5.1 1.2 5.9 0.7 0.8 2 0.8 4 0.7q0.6 0 1.3 0h378.2c5.4 0 6.4-2.3 6.4-7.1 0-5.2-1.9-45.7-3.5-62.7-1.8-17.8-4.6-20.6-10.9-20.6 0 0-370.2 0-370.2-0.1z"/>
				</g>
				<path class="s10" d="m0.2 467.7h50.3v0.5h-50.3z"/>
				<path class="s2" d="m181.2 294.4c0 0 0.5-2.2 2.4-2.2 2 0 2.4 2.2 2.4 2.2l-9.8 91.1-4.8 0.9z"/>
				<path class="s9" d="m225.7 248.5h449v1h-449z"/>
				<path class="s2" d="m244.3 414.4c-0.1 1.4 1 2.4 2.4 2.4h5.5c1.4 0 2.5-1 2.5-2.4v-17.3c0-1.3-1.1-2.4-2.5-2.4h-5.5c-1.4 0-2.5 1.1-2.5 2.4z"/>
				<path class="s2" d="m307.4 414.4c0 1.4-1.1 2.4-2.4 2.4h-5.5c-1.4 0-2.5-1-2.5-2.4v-17.3c0-1.3 1.1-2.4 2.5-2.4h5.5c1.3 0 2.4 1.1 2.4 2.4z"/>
				<path class="s9" d="m282.2 249.1h0.5v264h-0.5z"/>
				<path class="s9" d="m112.7 370.2v66.5h-0.3v-0.3c26.9 3.6 42.3 21.4 50.9 38.2 8.7 16.8 10.6 32.7 10.6 32.7h-0.3v-0.2h79.9l15.3-90.6v-131.7h-79.9v-0.5h80.4v132.2l-15.4 91.1h-80.5v-0.2c0 0-0.1-1-0.4-2.8-1.1-6.1-4.6-21.4-13.7-36.1-9-14.6-23.6-28.4-46.9-31.6h-0.3v-66.7z"/>
				<path class="s9" d="m484.8 249.1h0.5v264h-0.5z"/>
				<path class="s9" d="m269 284.3h13.4v0.5h-13.4z"/>
				<path class="s8" d="m265.6 436.9h16.8v0.5h-16.8z"/>
				<path class="s8" d="m112.1 436.7h0.6v11.5h-0.6z"/>
				<path class="s10" d="m111.6 436.7h0.5v11.5h-0.5z"/>
				<path class="s2" d="m609.8 460.6c0-0.1 73.4-0.5 77.2-0.5 3.8 0 3.8-6.3 3.8-6.3 0 5.6 9 6.6 9 6.6l-0.2 5.3-1.3 2 1.5 2c0 0-0.2 3.1-1.5 15.4-1.2 12.4-4 17.7-15.9 18.4-11.6 0.8-59.3 3.8-59.3 3.8 0 0 3.2-30.3-13.3-46.8z"/>
				<path class="s2" d="m86.8 404.9c0 1.4 1.1 2.5 2.5 2.5h2.7c1.4 0 2.5-1.1 2.5-2.5 0-1.4-1.1-2.5-2.5-2.5h-2.7c-1.3-0.1-2.5 1.1-2.5 2.5z"/>
				<path class="s11" d="m689.9 358.3c0 0-12.7 3.2-12.7 22.7 0 19.5 0 78.9 0 78.9 0 0 3.5 0.7 7.9 0.2 0.1 0 2.8 0.2 3.2-0.2 2.9-3 2.1-9.9 2.1-11.3 0-5.4-0.1-41.1-0.5-90.3z"/>
				<path class="s2" d="m5 434.1c0 0 0.3-1.9 0.7-3.5 0.4-1.4 1.5-2.4 2.8-2.9l31.5-9.8c3.3-1 6.3 2.3 5 5.5-3.2 7.7-8.5 19.2-14.8 25.9-6.6 7.2-25.2 4.3-25.2 4.3v-0.8z"/>
				<path class="s2" d="m181.6 292.2l-96.5 84.9 22.8-0.2c26.9-30.5 73.7-84.7 73.7-84.7z"/>
				<path fill-rule="evenodd" class="s2" d="m93.9 391c6.3-6.8 87.7-99.3 87.7-99.3 0 0 57 0 65.7 0 8.8 0 12.8 4.1 11.5 13.2-1.4 9.1-5.1 49.2-6.8 66-1.6 16.8-3 14.5-10.1 14.5-7 0-35.3 0-52.1 0-16.8 0-15.2 4.3-22.2 14.8-7.1 10.4-10.5 10.7-15.8 10.7-5.4 0-25.3 0-52.5 0-27.3 0-11.7-13-5.4-19.9zm35.1 7.5l23.7 0.6c7.9 0 10.3-4 11.2-5.6 4.1-7.1 6.6-10.3 20.7-10.3h57.4l2.3 0.1c2.7 0.1 3 0 3.4-0.7 1.1-1.7 1.7-6.7 2.2-11.9l1.6-16.9c1.9-18.9 4.1-42.4 5.1-49.2q0.3-1.5 0.3-2.9 0-3.4-1.6-5.3c-1.5-1.7-4.1-2.5-8-2.5 0 0-62.9 0-64.8 0-8.1 9.2-54.7 62.4-60.7 68.9 0 0-4 35.7 7.2 35.7z"/>
				<path class="s7" d="m111.5 351.9l5.4 43.7c0 0-10.4 2.2-12.3-7.5-1.8-9.8-3.7-27.8-3.7-31 0.1-3.2 0.7-4.4 10.6-5.2z"/>
				<path class="s9" d="m508.9 513.1h-351v-3.1h351z"/>
				<path class="s2" d="m648.9 391.5h-163.6v-7.5h163.6z"/>
			</g>
		</g>
		<g>
			<path class="s1" d="m182.2 569.4c7-7.3 21.9-5.8 31.1-6.2 34.8-1.6 69.5-4.7 104.3-4.7 22 0 44-2.3 66-2.3 3.2 0 41.5 0 47.9 0 21.5 0 43.7 1.7 64.8-3.3 10-2.3 19.8-4.1 30-2.8 17.6 2.1 34 5.4 51.8 5.6 20.3 0.2 40.6-0.6 61-0.6 4.2 0 14.9 0 14.9 0 0 0 20.2 0 23.4 0 3.2 0 11.7 4.5 11.7 4.5l-359.8 29.5c0 0-56.8-1.1-58.5-1.2-25.8-0.5-54.9-1.9-79.4-11.2-2.4-0.9-9.3-3-9.7-6-0.1-0.5 0.1-0.9 0.5-1.3z"/>
			<path fill-rule="evenodd" class="s2" d="m311.9 522.1c-2.6 32.6-31.7 56.8-65 54.1-33.3-2.6-58.1-31.2-55.5-63.7 2.6-32.6 31.7-56.8 65-54.1 33.3 2.7 58.1 31.2 55.5 63.7z"/>
			<path class="s12" d="m390.4 534.1l-8.2 9-39-10.1-75.1-9.8 24.1-73.5 78.4-14.8 37.3 23.6-1.6 58.6z"/>
			<path fill-rule="evenodd" class="s12" d="m664.5 506.2l-6.9 7.3-63.8-9 7.1-57.5 31.3-13.2c0 0 18.6-0.5 20.8 1.1 2.2 1.6 14.3 36.7 14.3 36.7z"/>
			<path fill-rule="evenodd" class="s2" d="m378.5 534.6c-2.6 32.5-31.7 56.7-65 54.1-33.3-2.7-58.2-31.2-55.5-63.8 2.6-32.5 31.7-56.7 65-54.1 33.3 2.7 58.1 31.2 55.5 63.8z"/>
			<path fill-rule="evenodd" class="s2" d="m654.4 503.6c0.1 30-17.5 54.3-39.1 54.3-21.8 0.1-39.4-24.1-39.5-54-0.1-30 17.5-54.2 39.2-54.3 21.7-0.1 39.3 24.1 39.4 54z"/>
			<path fill-rule="evenodd" class="s13" d="m378.6 533.5c-2.6 31.7-25 55.7-50 53.7-25.1-2-43.4-29.3-40.8-60.9 2.5-31.7 24.9-55.7 50-53.7 25 2 43.3 29.3 40.7 60.9z"/>
			<path fill-rule="evenodd" class="s14" d="m366.1 536.9c-1.6 20.1-15.8 35.3-31.7 34-15.8-1.3-27.4-18.5-25.8-38.6 1.6-20 15.8-35.2 31.7-34 15.8 1.3 27.4 18.6 25.8 38.6z"/>
			<path fill-rule="evenodd" class="s14" d="m364.5 536.8c-1.5 19-14.9 33.4-29.9 32.2-15-1.2-26-17.6-24.4-36.6 1.5-18.9 14.9-33.3 29.9-32.1 15 1.2 25.9 17.6 24.4 36.5z"/>
			<path fill-rule="evenodd" class="s14" d="m356.1 536.1c-1.1 13.1-10.3 23-20.7 22.2-10.3-0.9-17.8-12.1-16.8-25.2 1.1-13 10.3-22.9 20.6-22.1 10.4 0.8 17.9 12.1 16.9 25.1z"/>
			<path fill-rule="evenodd" class="s15" d="m354.4 536c-1 11.9-9.4 20.9-18.8 20.2-9.4-0.8-16.3-11-15.3-22.9 0.9-11.9 9.4-21 18.8-20.2 9.4 0.8 16.3 11 15.3 22.9z"/>
			<path fill-rule="evenodd" class="s13" d="m345.2 535.2c-0.4 5.4-4.3 9.5-8.6 9.2-4.3-0.3-7.4-5-7-10.4 0.4-5.4 4.2-9.5 8.6-9.2 4.3 0.3 7.4 5 7 10.4z"/>
			<path fill-rule="evenodd" class="s13" d="m652.5 503.7c-0.7 28.3-14.1 51-29.9 50.6-15.9-0.4-28.2-23.6-27.5-51.9 0.6-28.3 14-51 29.9-50.6 15.8 0.4 28.1 23.6 27.5 51.9z"/>
			<path fill-rule="evenodd" class="s16" d="m643.4 509.4c-0.5 13.3-8.3 23.8-17.3 23.4-9-0.3-16-11.4-15.5-24.7 0.5-13.3 8.3-23.8 17.3-23.4 9.1 0.3 16 11.4 15.5 24.7z"/>
			<path fill-rule="evenodd" class="s14" d="m642.5 509.4c-0.5 12.5-7.8 22.5-16.4 22.1-8.5-0.3-15.1-10.8-14.6-23.3 0.5-12.6 7.8-22.6 16.4-22.2 8.5 0.3 15.1 10.8 14.6 23.4z"/>
			<path fill-rule="evenodd" class="s15" d="m637.7 509.2c-0.4 8.6-5.4 15.5-11.3 15.2-5.9-0.2-10.4-7.4-10.1-16 0.4-8.7 5.4-15.5 11.3-15.3 5.9 0.2 10.4 7.4 10.1 16.1z"/>
			<path fill-rule="evenodd" class="s13" d="m631.5 508.9c-0.2 3.6-2.3 6.4-4.7 6.4-2.5-0.1-4.3-3.1-4.2-6.7 0.1-3.6 2.2-6.5 4.7-6.4 2.4 0.1 4.3 3.1 4.2 6.7z"/>
			<path fill-rule="evenodd" class="s17" d="m324.2 309.8c0 0 24.6-12.3 110.7-9.8 86.1 2.4 228.8 22.8 228.8 22.8l-249.3-7.3-90.1-4.1v-1.6z"/>
			<path fill-rule="evenodd" class="s18" d="m686.2 500.4c-0.8 5.5-4.7 5.8-4.7 5.8l-23.9 7.3c4.7-16.3-2.2-56.5-27.1-52.1-25 4.3-33.3 58.6-33.3 58.6l-215 23.1c15.6-73.8-27.1-71.2-49.9-68.3-14 1.7-23.5 11.4-28.7 18.6-3.3 4.6-4.9 8.2-4.9 8.2 0 0-0.5 1.4-1.4 3.9-3 8.2-10.2 27.3-15 32.6-6.1 6.9-29.6 8.7-49.5 4-19.9-4.7-57.9-21.7-57.9-21.7-7.2-16-10.5-47.8-9.4-52.5 1.1-4.7 11.6-17.4 11.6-17.4l7.2-20.6v-0.9c0.1-11.4 9.8-17.2 9.8-17.2 0 0 40.9-22.8 47.4-26.4 6.5-3.6 11.5-4.4 11.5-4.4 0 0 0 0 0.1 0 1.6-1.9 50.7-55.5 59.3-63.6 5-4.8 11.2-6.9 15.4-7.7 3.1-0.7 5.2-0.7 5.2-0.7l77.5-2.2c14.8-7.9 92.6 1.1 92.6 1.1 93 1.1 160.6 14.9 160.6 14.9 0 0 3.7 13.4 11.6 48.1 4.8 21 5.7 37.9 5.6 48.1 0 6.7-0.5 10.5-0.5 10.5l-3.6 0.7v7.3l6.8-1.1-1.8 52.8 4.4-1.8c0 0 0.7 7.6 0 13z"/>
			<path fill-rule="evenodd" class="s19" d="m339.4 388.8c0 0-26.9 31.9-52.2 43.5-25.4 11.6-69.9 6.4-102.9-2.4-0.3-12 9.8-18.1 9.8-18.1 0 0 40.9-22.8 47.4-26.4 6.5-3.7 11.5-4.4 11.5-4.4 0 0 54.5 6 86.4 7.8z"/>
			<path fill-rule="evenodd" class="s20" d="m680.9 419.1c0 6.7-0.5 10.4-0.5 10.4l-3.6 0.8-285.3 10.5c0 0-98.9 11.3-96.6-6.7l384.3-15.8z"/>
			<path fill-rule="evenodd" class="s20" d="m657.6 513.5c4.7-16.3-2.2-56.5-27.1-52.1-25 4.3-33.3 58.6-33.3 58.6l-215 23.1c15.6-73.8-27.1-71.2-49.9-68.3-22.8 2.8-33.6 26.8-33.6 26.8 0 0-0.5 1.4-1.4 3.9l-8-23.1c0 0 37.1-34.8 70.8-22.5 33.7 12.4 32.6 52.8 32.6 52.8l201.1-15.7c0 0 18-53.9 40.5-49.4 22.5 4.5 37.6 27.3 23.3 65.9z"/>
			<path class="s21" d="m595.5 499.5l-2.6 16.9-0.8 0.1-102 10.7-1.2 0.1-96 10 2.2-23.5 95.4-6.8 1.1-0.1 103.4-7.4z"/>
			<path fill-rule="evenodd" class="s20" d="m491.6 504.7v2.7c0 8.5-0.7 15.2-1.5 19.8l-1.2 0.1c0.8-4.5 1.6-11.4 1.6-20v-2.5c0-14.2-0.1-45.5-1.8-76.9 0-0.4-0.1-0.8-0.1-1.2-0.5-8.3-1.1-16.6-1.8-24.6-3.6-40.1-9.4-94.2-9.4-94.7l1.1-0.1c0 0.5 5.8 54.5 9.4 94.7 0.8 8 1.3 16.3 1.8 24.7 0 0.4 0 0.8 0.1 1.1 1.7 31.5 1.8 62.7 1.8 76.9z"/>
			<path fill-rule="evenodd" class="s20" d="m650.7 420.6c-14.1 0.5-32.5 1.2-53.3 2-0.9-15.1-2-25.3-2.1-25.6l-1.1 0.2c0 0.2 1.2 10.4 2.1 25.5-91.1 3.5-227.8 8.7-254 8.7-39.4 0-55 0.3-55.2 0.3v1.1c0.2 0 15.9-0.3 55.2-0.3 26.2 0 163-5.2 254.1-8.7 1.1 20 1.8 48-1.1 73.2l-202.7 15.2 0.1 1.1 202.5-15.2c-1 8.3-2.1 14.5-3.9 21.8l1.3-0.3c7.7-29.5 6.4-68.9 4.9-95.8 20.8-0.9 39.2-1.6 53.2-2.1 16.4-0.7 27.3-1.1 27.7-1.1v-1.1c-0.4 0-10.7 0.4-27.7 1.1z"/>
			<path fill-rule="evenodd" class="s19" d="m303.6 493.4c-3.3 4.6-4.9 8.2-4.9 8.2 0 0-0.5 1.4-1.4 3.9-3 8.2-10.2 27.3-15 32.6-4.4 4.9-17.8 7.3-32.4 6.4-5.7-0.3-11.5-1.1-17.1-2.5-19.9-4.6-57.9-21.7-57.9-21.7-0.1-0.2-0.2-0.5-0.4-0.8-6.9-16.1-10.1-47-9-51.6q0.2-1 0.9-2.3c0.8-1.6 2-3.5 3.4-5.5 0.3-0.4 0.5-0.8 0.8-1.1 2.8-4 5.7-7.6 6.4-8.3q0.1-0.2 0.1-0.2l7.2-20.6v-0.9l1.3-0.1c0 0 17.9 5.3 44.6 6.9q3.7 0.2 7.6 0.4c0 0 0-2.9 3.2-2.9h40.5c4.8 0 8 0 8 0 0 0 1.3 25.8 1.3 35.3-0.1 9.3-2.8 24.6 12.8 24.8z"/>
			<path fill-rule="evenodd" class="s19" d="m408.8 307.4l-48.8 58.9-17.4 20.3-0.5 0.6c0 0-1 2.9-6.3 2.2-4.5-0.6-65.3-6.6-82.7-8.4 0.2-0.2 1-1.1 2.4-2.6 10.2-11.2 49.3-53.8 56.9-61 5-4.8 11.2-6.8 15.4-7.7z"/>
			<path fill-rule="evenodd" class="s19" d="m657.3 486.6l28.9 0.8 0.3 9.5c0 0 0.8 7.5-4 8.9l-24.9 7.7c0 0 1.5-17.3-0.3-26.9z"/>
			<path fill-rule="evenodd" class="s18" d="m342.6 386.6l-0.6 0.6c0 0-0.9 2.9-6.2 2.2-4.5-0.6-65.3-6.6-82.7-8.4 0.2-0.2 1-1.1 2.4-2.6l12 1.4 2.7-1.7 25.1 4.2 1.9-1.7 45.3 5.5z"/>
			<path fill-rule="evenodd" class="s0" d="m348.2 374.4l44-54.6-57.2-2.3c0 0-12.5-0.2-22.3 9.6-9.8 9.7-25.1 24.8-25.1 24.8l4.7 10-1.3 10.4 16.8-7.2c0 0 5.6-1.7 8.5 1.5 3 3.2 5.6 7.2 5.6 7.2 0 0-1.7-10.2 3.6-11 5.3-0.9 13.8 12.1 13.8 12.1z"/>
			<path fill-rule="evenodd" class="s0" d="m325.5 373.4c0 0-2.8-6.6 0.6-8.3 3.4-1.7 10.7 8.9 10.7 8.9z"/>
			<path fill-rule="evenodd" class="s19" d="m271.1 529.7c-4 5.9-29.3 7.4-40.4 5.3-10.4-2-42.6-9.1-56.2-15.5-6.9-16.1-10.1-47-9-51.6q0.2-1 0.9-2.3 1.1 0.8 3 2c5.9 3.9 17.7 10.3 34.5 13.3 2.1 0.4 4.2 0.7 6.2 1.1 23.2 3.5 45.5 2.8 49.9 1.8 4.8-1 11.1-1 12.4 6.8 1.2 7.7 2.7 33.3-1.3 39.1z"/>
			<path fill-rule="evenodd" class="s19" d="m259.6 478.2c-0.8 2.3-40 0.2-59.5-5.9-11.8-3.6-23.2-8.7-30.3-12.1 0.2-0.4 0.5-0.9 0.8-1.2 3.6 2 15.4 8.3 35 12.9 23.6 5.7 52.3 4.4 52.3 4.4 0 0 2.5-0.4 1.7 1.9z"/>
			<path fill-rule="evenodd" class="s21" d="m303.6 493.4c-3.3 4.6-4.9 8.2-4.9 8.2 0 0-0.5 1.4-1.4 3.9-3 8.2-10.2 27.3-15 32.6-4.4 4.9-17.8 7.3-32.4 6.4 4-3.4 7.4-8 11.4-13.5 7.1-9.9 6.1-43.6 6.1-43.6 18.6-12.5 14.8-48.3 14.1-54.1 4.8 0 8 0 8 0 0 0 1.2 25.8 1.2 35.3 0 9.3-2.7 24.6 12.9 24.8z"/>
			<path fill-rule="evenodd" class="s19" d="m230.2 435.8c-2.6 4.6-12.2 22.2-12.2 22.2 0 0-1.1 3.3-4 3.3q0 0-0.1 0c-2.8 0-23.6-1.3-36.9-10.6q0.1-0.2 0.1-0.2l7.2-20.6v-0.9l1.3-0.1c0 0 17.9 5.3 44.6 6.9z"/>
			<path fill-rule="evenodd" class="s20" d="m210.2 482c-0.4 4.1-1.1 13-1.3 14.9-0.4 2.5-3.4 1.8-3.4 1.8 0 0-31.3-8.5-33.6-10.3-2.4-1.7-2-3.6-2-3.6l-0.5-17.2c5.9 3.9 17.7 10.3 34.5 13.3 2.1 0.4 4.2 0.7 6.3 1.1z"/>
			<path fill-rule="evenodd" class="s14" d="m216.7 458.1c0 0-0.7 1.9-2.8 3.2-2.9 0-23.6-1.3-36.9-10.6l0.9-1.7 7-18.5c0 0 24.3 6.3 42.6 6.5z"/>
			<path class="s14" d="m174.6 489.7v16l20.3 8.5 0.7-18.1z"/>
			<path fill-rule="evenodd" class="s22" d="m166.4 465.6c0 0 15.9 14.4 57.5 18.3 0 0 26.5 1.2 35.6 0.2 9-1 12.4 1.8 13.6 9.2 1.1 7.3 1.6 28.2-1.2 34.4-2.8 6.3-10.6 7.7-17.9 8.1-7.4 0.4-33 1.8-79.5-16.3"/>
			<path fill-rule="evenodd" class="s19" d="m227.8 454.8l9.7-18.8c0 0 0.7-2.9 4.4-2.8 3.7 0.1 47.6 0.1 47.6 0.1l1 31.4-58.6-2.5c0 0-6.3 0.1-4.1-7.4z"/>
			<path fill-rule="evenodd" class="s14" d="m241.7 434.9h46.3l1.4 27.9-56.2-1.9c0 0-3.9 0.2-3.8-3 0.1-3.3 3.2-9.1 3.2-9.1l7.1-12.7c0 0 0.6-1 2-1.2z"/>
			<path fill-rule="evenodd" class="s20" d="m681.7 484.7c0 0 4.3 1 4.5 2.7 0.2 1.7-28.1 4-28.1 4l-0.8-4.8 24.4 0.5z"/>
			<path fill-rule="evenodd" class="s20" d="m250.7 385.9l12.6 2.2c0 0-54.4 27.5-60.4 38.8 0 0-7.4-0.8-5.1-6.8 2.2-6.1 52.9-34.2 52.9-34.2z"/>
			<path fill-rule="evenodd" class="s20" d="m415.1 324.8c0 0 2.1-3.8 9.4-5 7.4-1.2 38.5 0.7 38.5 0.7 0 0 4.9-0.5 5.8 4.3 1 4.8 4.5 70.4 4.5 70.4 0 0 1.6 3.3-3.8 4.5-5.3 1.1-104.7 5.9-104.7 5.9z"/>
			<path fill-rule="evenodd" class="s13" d="m469.3 398.8c-3.6 0.2-102.4 5.9-102.4 5.9 0 0-14.8 2-0.7-19.1l42.2-52.5 3.4-4.2 2.7-3.3c0 0 2.9-4.8 14.8-4.8 12 0 35.5 0.7 35.5 0.7 0 0 2.6 0 3.1 4.1 0.5 4 4.3 70.3 4.3 70.3 0 0 0.7 2.6-2.9 2.8z"/>
			<path fill-rule="evenodd" class="s0" d="m433.9 330.3v6.5c0 0-3.3 0-4.6 3.5-1.2 3.3-0.9 26.7-0.9 26.7l-5.4 14.5-7.5 0.2 2.2-16.9c0 0 0.9-6.2-6.5-6.5-7.4-0.3-17-0.1-17-0.1v-5.4h15.2c0 0 2.1 0.1 2.7-2.4 0.6-2.2 2-14.9-3.7-17.3l3.4-4.2z"/>
			<path fill-rule="evenodd" class="s0" d="m438.1 330.4h21.4c0 0-1.7 0.3-1.9 2.7-0.2 2.5 0 16.1 0 16.1 0 0-0.2 5.6 4.3 5.9 0 0-8.3-2.3-10.2 7.2h-1.4v-19c0 0 0-5.4-4.6-5.8-4.6-0.5-8 0-8 0z"/>
			<path fill-rule="evenodd" class="s20" d="m483 322.7c0 0 0.4-2.8 4.5-3 4.1-0.2 114.8 3.6 151.5 8.6l6.3 0.8c0 0 5.3-0.4 7 5.1 1.6 5.5 11 54.6 11 54.6 0 0 3.9 7.4-8 7.8-11.8 0.4-85.5 1-85.5 1z"/>
			<path fill-rule="evenodd" class="s13" d="m657.8 396.4c-2.6 0.6-34 1-68.7 1.1-5.1 0.1-10.3 0.1-15.6 0.1-40.2 0.2-79.8 0.2-79.8 0.2 0 0-3.4 0.5-3.6-3.4-0.2-3.8-7.6-69.8-7.6-69.8 0 0-1-3.6 3.5-3.4 0 0 39.3 0.1 85 2.7q5.7 0.3 11.4 0.6c21.7 1.4 44.2 3.3 64.2 6.1-0.1 0 4.3 0.2 5.5 5q0 0 0 0.1c1.2 5.1 9 45.9 10.1 51.6q0.1 0.7 0.1 0.7c0 0 1.5 6.9-4.5 8.4z"/>
			<path fill-rule="evenodd" class="s0" d="m488 343.4c0 0 7.4-0.2 8.3 5.2 0.8 5.4-0.1 20.8-0.1 20.8l11.5 0.8c0 0-1-10.3 3.8-10.4 4.9-0.2 10.2 0.7 10.2 0.7 0 0-1.2-11 0.2-12.9 1.4-2 13.8 0.3 13.8 0.3 0 0 6.5-1.1 6.5 5.9 0 7-0.4 16-0.4 16l6.1-0.9 1.1-17.8c0 0 0-4.3 6.8-3.6v-12.7c0 0 1.1-2.7-3-3.6-4.1-0.9-56-1.6-56-1.6 0 0-5.7-1.1-6.8 3.8-1.1 4.8-2 10-2 10z"/>
			<path fill-rule="evenodd" class="s0" d="m590.5 330.4c0.5 0 4.7 6.1 5.3 17.3 0.7 11.3 0 24.5 0 24.5h34.8l5-38.9z"/>
			<path fill-rule="evenodd" class="s0" d="m660.5 386.9l-10-50.9-12.1-1.6-1.4 51.4c0 0-0.9 2.2 1.6 2.7 2.5 0.4 22.1 2.2 22.1 2.2 0 0 0.8 0.3-0.2-3.8z"/>
			<path fill-rule="evenodd" class="s13" d="m610.5 345.6l13.8 0.6c0 0 2.8 0.3 3.2 4.4 0.3 4 0.1 12.8 0.1 12.8 0 0 0.2 2.2-2.2 2.8-2.3 0.6-16.1-2.2-16.1-2.2 0 0-2.2 0.5-2-3.6 0.1-4 0.6-13 0.6-13 0 0 0.3-1.7 2.6-1.9z"/>
			<path fill-rule="evenodd" class="s19" d="m657.8 396.4c-2.6 0.6-34 1-68.6 1.1-5.2 0.1-10.4 0.1-15.6 0.1-40.3 0.2-79.9 0.2-79.9 0.2 0 0-3.4 0.5-3.6-3.4-0.2-3.8-7.6-69.8-7.6-69.8 0 0-1-3.6 3.5-3.3 0 0 39.3 0 85 2.6 3.8 0.2 7.6 0.4 11.5 0.6 21.6 1.4 44.1 3.3 64.1 6.1 0 0 4.3 0.2 5.5 5q0 0.1 0 0.1c-12.5-3.4-61.6-5.3-61.6-5.3l-6.6-0.4c5.2 22 5.5 50.8 5.3 64 34.8-0.2 66.4-0.4 66.4-0.4 0 0 4.1 0.8 6.6-6.3q0.1 0.7 0.1 0.7c0 0 1.5 6.9-4.5 8.4zm-83.6-2.4c4.2-25.7 0.4-52-2-64.6l-82.6-4.6c0 0-2.8 0.8-2.5 6.5 0.2 5.5 7 61.5 7 61.5 0 0-0.3 1.1 5.6 1.4 2.8 0.1 38.1 0 74.5-0.2z"/>
			<path fill-rule="evenodd" class="s19" d="m480.2 413.2c0 2.3-1.8 4.2-4.2 4.2h-16.4c-2.3 0-4.2-1.9-4.2-4.2 0-2.3 1.9-4.2 4.2-4.2h16.4c2.4 0 4.2 1.9 4.2 4.2z"/>
			<path fill-rule="evenodd" class="s19" d="m525.2 413.2c0 2.3-1.9 4.2-4.2 4.2h-16.4c-2.4 0-4.3-1.9-4.3-4.2 0-2.3 1.9-4.2 4.3-4.2h16.4c2.3 0 4.2 1.9 4.2 4.2z"/>
			<path fill-rule="evenodd" class="s19" d="m405.1 397.1c0 1-1.3 1.9-2.8 1.9h-36.1c-1.5 0-2.7-0.9-2.7-2v-24.1c0-1.1 1.2-2 2.7-2h36.1c1.5 0 2.8 0.9 2.8 2z"/>
			<path fill-rule="evenodd" class="s20" d="m399.4 397.4c0 0.9-1 1.6-2.4 1.6h-31.1c-1.4 0-2.4-0.7-2.4-1.6v-19.4c0-0.8 1-1.5 2.4-1.5h31.1c1.4 0 2.4 0.7 2.4 1.5z"/>
			<path fill-rule="evenodd" class="s19" d="m391.4 391.7c-0.1 5.3-0.8 12.1-7.4 14.6-0.9 0.3-2 0.6-3.3 0.8-8.3 1.6-23 1.5-23 1.5 0 0-6.3-0.3-4.6-5.2 1.4-3.8 5.7-9.7 7.5-12.2 0.5-0.7 0.9-1.2 0.9-1.2 0 0 1-1.8 2.3-2.2l24.6-0.6c0 0 3.1-0.7 3 4.5z"/>
			<path fill-rule="evenodd" class="s20" d="m387.9 393.7c-0.1 2.3-1.3 9.1-7.2 13.4-8.3 1.6-23 1.5-23 1.5 0 0-6.3-0.3-4.6-5.2 1.4-3.8 5.7-9.7 7.5-12.2l24.9-0.5c0 0 2.5 0.3 2.4 3z"/>
			<path fill-rule="evenodd" class="s19" d="m676.6 434.5l6.2-0.1c0 0 2.5-0.7 2.1 3.9-0.3 4.5-3.2 48.8-3.2 48.8h-1l0.6-45.3c0 0 0.8-2.3-1.5-2.7-2.3-0.4-3.2-0.4-3.2-0.4z"/>
		</g>
		<g>
			<g>
				<g>
					<path class="s2" d="m507.3 575.9c0 10.3-5.7 19-13.6 22-2 0.8-4.1 1.2-6.2 1.2-4 0-7.7-1.4-10.8-3.7-3-2.3-5.5-5.6-7.1-9.5-1.2-3-1.9-6.4-1.9-10 0-11.2 6.8-20.5 15.8-22.6q2-0.5 4-0.5c10.9 0 19.8 10.4 19.8 23.1z"/>
					<path class="s2" d="m487.5 599.1h-21.1c-2.2 0-4.3-0.5-6.3-1.3-8.5-3.7-14.7-14.7-14.7-27.6 0-16 9.4-29 21-29 7.1 0 13.3 4.8 17.1 12.1-9 2.1-15.8 11.5-15.8 22.6 0 3.6 0.7 7 1.9 10 1.6 3.9 4.1 7.2 7.2 9.5 3 2.3 6.7 3.7 10.7 3.7z"/>
				</g>
				<path class="s1" d="m606.5 592.5h-71.1c0 0-155.4 8-146.8 17.9 8 9.3 153.8 9.5 153.8 9.5 0 0 60 4.9 85.2-1.8 25.1-6.6 97.9-15.7 97.9-15.7 0 0 85.2-13.3 95.5-14.5 10.2-1.2-37.7-3.1-56.3-3.4-18.6-0.3-34.3-11.9-34.3-11.9l-119.8 19"/>
				<g>
					<path class="s23" d="m613.2 613.1c-11.9 0-21.6-16.7-21.6-37.3 0-20.6 9.7-37.3 21.6-37.3 11.9 0 21.6 16.7 21.6 37.3 0 20.6-9.7 37.3-21.6 37.3z"/>
				</g>
				<g>
					<path class="s24" d="m650.3 582.5c-9.9 4.2-82.7-11.5-96.7-19.8 26.4-73.5 85.5-50.2 94.2-21.5 4.7 9.9 9.4 38.4 2.5 41.3z"/>
					<path class="s2" d="m549.1 569.3c0 0-8.3 32.4 19.1 49.2 0 0 7.9 7.1 35.4 6 0 0 26.6-1 34.6-38 0 0 10.8-71.4-54.5-54.2 0 0-11.5 3.6-23.4 17.3l-3.7 13.9c0 0-2.7 5.9-7.5 5.8z"/>
					<path class="s5" d="m625.3 578.6c-0.8 16-11.5 28.6-24 28.1-12.5-0.5-22.1-14-21.4-30.1 0.7-16 11.5-28.6 24-28.1 12.5 0.6 22.1 14 21.4 30.1z"/>
					<g>
						<path fill-rule="evenodd" class="s2" d="m630.1 570.3v0.7q0.1 0.5 0.1 1 0 0.3 0 0.6 0 0.6 0 1.3 0 0.2 0 0.5 0 0.9 0 1.8 0 1.3-0.2 2.6 0 0.3 0 0.6-0.2 1.3-0.4 2.6v0.1q-0.2 1.4-0.5 2.7 0 0.1-0.1 0.2-0.2 1-0.5 2-0.1 0.4-0.2 0.7-0.3 1.2-0.7 2.3 0 0.2-0.1 0.3-0.2 0.5-0.4 1 0 0.2-0.1 0.4-0.2 0.6-0.5 1.2-0.4 1-0.8 1.9-0.1 0.2-0.2 0.3-0.2 0.5-0.5 1 0 0.1-0.1 0.2-0.5 0.9-1 1.9-0.1 0.1-0.1 0.2-0.3 0.4-0.6 0.9-0.1 0.1-0.2 0.2-0.8 1.4-1.8 2.7-0.1 0.2-0.2 0.3-0.3 0.4-0.7 0.8 0 0.1-0.1 0.1-0.5 0.7-1.1 1.3-0.3 0.4-0.7 0.7-0.2 0.3-0.4 0.5-0.1 0.1-0.1 0.1-0.4 0.3-0.7 0.6-0.4 0.4-0.8 0.8-0.4 0.4-0.9 0.8l-0.1 0.1q-0.4 0.3-0.9 0.7h-0.1q-0.5 0.4-1.1 0.8-0.4 0.3-0.8 0.6-0.3 0.2-0.7 0.4l-0.1 0.1q-1 0.6-2.2 1.1-0.8 0.4-1.6 0.8h-0.1q-0.7 0.3-1.4 0.5-0.7 0.2-1.5 0.4l-0.1 0.1q-0.2 0-0.4 0.1-0.3 0-0.6 0.1-0.7 0.1-1.5 0.3-0.3 0-0.6 0-0.2 0.1-0.5 0.1-0.3 0-0.7 0-0.2 0.1-0.5 0.1-0.6 0-1.1 0-1.1 0-2.1-0.2c-4.3-0.4-8.3-2.2-11.8-5q-0.3-0.3-0.7-0.6-1.1-0.9-2.1-2c-1.4-1.5-2.6-3.2-3.7-5q-0.9-1.3-1.6-2.8-0.7-1.5-1.3-3-0.3-0.7-0.5-1.4-0.4-0.9-0.6-1.8-0.5-1.7-0.8-3.3-0.6-3-0.9-6.1-0.1-2.5 0-5.1 0-1 0.1-2 0.1-0.9 0.2-1.9 0.3-2.8 1-5.5c0.9-4.1 2.4-7.9 4.3-11.3q0.9-1.8 2-3.4c2.8-4.2 6.3-7.7 10.1-10.2h0.1q1.1-0.7 2.3-1.3 0.3-0.2 0.7-0.4 0.7-0.3 1.4-0.6 1-0.4 2-0.7 1.3-0.4 2.6-0.7 1.3-0.2 2.7-0.3 0.4 0 0.7 0 0.3-0.1 0.7 0 0.3 0 0.6 0 0.2 0 0.5 0 0.4 0 0.8 0 0.3 0 0.6 0.1 0.3 0 0.6 0.1 0.4 0 0.7 0.1 0.2 0 0.3 0 0 0.1 0 0.1 1.1 0.2 2.2 0.5 0.4 0.1 0.8 0.2l0.1 0.1q0.5 0.1 1 0.3l0.1 0.1q2.6 1 4.9 2.7 0.1 0.1 0.2 0.2 0.5 0.3 1 0.8 0.1 0 0.1 0 1.1 0.9 2.2 2l0.1 0.1q0.3 0.4 0.7 0.8 0.1 0.1 0.1 0.1 0.1 0.1 0.2 0.2 0.3 0.3 0.5 0.7 0.4 0.4 0.7 0.8 0 0.1 0.1 0.1 0.6 0.9 1.3 1.9 0.1 0.1 0.2 0.3 0.2 0.4 0.5 0.8 0.1 0.2 0.2 0.4 0.3 0.4 0.5 0.8 0.1 0.3 0.2 0.5 0.4 0.7 0.7 1.4 0.2 0.3 0.3 0.6 0.2 0.4 0.3 0.7 0.2 0.4 0.3 0.7 0.1 0.4 0.3 0.7 0.1 0.4 0.2 0.8 0.2 0.3 0.3 0.7 0.2 0.5 0.3 1 0.1 0.3 0.2 0.7 0.2 0.6 0.3 1.2 0.1 0.3 0.2 0.6 0.1 0.5 0.2 1 0.1 0.3 0.1 0.6 0.1 0.5 0.2 1.1 0.1 0.2 0.1 0.5 0.1 0.8 0.2 1.5v0.2c0.1 0.5 0.2 1.1 0.2 1.6zm-6.1 17.4q0.2-0.7 0.4-1.4c0.9-3 1.5-6.2 1.8-9.5q0.2-1.8 0.1-3.6 0-0.6 0-1.2-0.1-1.1-0.3-2.3c-0.7-5.2-2.8-9.8-5.5-13.5q-1-1.5-2.3-2.8-0.3-0.4-0.7-0.8-1.1-1.1-2.3-2-1.6-1.2-3.3-2.1c-2.2-1.1-4.5-1.7-6.7-1.6q-0.7 0-1.3 0-0.1 0-0.2 0c-3.8 0.3-7.2 1.4-10.1 3q-1.7 1-3.2 2.2c-6.8 5.6-10.6 15-11.6 25.7q-0.1 1.9-0.1 3.8 0.1 0.4 0.1 0.7 0.1 2 0.5 3.9c0.5 2.6 1.4 5.1 2.5 7.4 1.4 2.7 3 5.1 4.9 7.2 1.7 1.8 3.6 3.4 5.5 4.5 1.9 1.2 3.8 2 5.7 2.3q1 0.1 2 0.1 0.5 0 1 0 0.5-0.1 0.9-0.1c5-0.5 9.2-2.4 12.7-5.3 3.5-2.9 6.3-6.8 8.3-11.4q0.7-1.6 1.2-3.2zm-7.6-5.8q3.4 2.6 7.2 4.5c-2.5-1.2-4.9-2.7-7.1-4.4q-0.1-0.1-0.2-0.2-0.2-0.1-0.3-0.2 0.2 0.2 0.4 0.3zm-0.1-0.1c2.2 1.8 7 5.6 6.8 6q-0.4 1.3-0.9 2.5-1.6-1-3.4-1.9-5-2.5-11-4.1-0.1-0.1-0.3-0.1-0.1 0-0.1 0-0.1 0-0.3 0c-0.6 0.1-1.1 0.4-1.3 0.7q0 0.1-0.1 0.1-1 2.7-1.8 5.6-0.4 1.2-0.7 2.5-1.7 6.7-1.8 14.1-0.3 0-0.6 0-0.4 0.1-0.9 0.1-0.4 0-0.8 0-0.3-0.1-0.6-0.1c0.7-5.6 1.3-10.9 1.6-16.1q0.1-3.5 0-6.9c0-0.5-0.3-1-0.8-1.3-0.5-0.2-1.2-0.4-2-0.4h-0.1q-5.6 0.5-11.1 1.7-3 0.7-6 1.6-0.4-1.7-0.5-3.5 0-0.3 0-0.6 9.2-2.4 17.4-6.7c0.8-0.5 1.2-1.1 1.2-1.7v-0.1c-0.8-4.3-2.1-8.6-3.7-13q-1.5-3.9-3.3-7.9 1.1-1 2.5-1.8c3.1 7.1 6.3 13.5 9.6 18.2 0.2 0.3 0.7 0.5 1.2 0.5 0.4-0.1 0.8-0.2 1-0.4q0.1 0 0.1-0.1 2.7-2.8 5.2-5.6 1.7-1.9 3.2-3.8 1.5-1.9 2.9-3.8 0.5-0.8 1-1.5 0.4 0.5 0.8 0.9 0.5 0.7 1.1 1.4c-4.5 6.8-8.3 13.1-10.5 18.4q0 0.1 0 0.1-0.1 0.3-0.1 0.5 0 0.6 0.5 1 2.7 2.5 5.5 4.7 0.5 0.4 1.1 0.8zm-0.3-0.2q-0.4-0.3-0.8-0.6c0.1 0.1 0.4 0.3 0.8 0.6z"/>
						<path class="s2" d="m592.7 597.9l2.6-10.1-1.1-2.1q-1 0.2-1.9 0.6-1 0.4-1.9 0.9-0.1 0.1-0.2 0.1-0.8 0.5-1.2 1.1-0.4 0.7-0.4 1.4 0 0.3 0 0.6 1.1 4.3 4.1 7.5z"/>
						<path class="s2" d="m610.8 542.8q-3.9-0.4-7.2-0.6 0.9-0.1 1.8-0.1 0.4 0 0.7 0 0.7 0 1.3 0.1 0 0 0.1 0 0.2 0 0.4 0 0.4 0 0.8 0.1 0.3 0.1 0.6 0.1 0.3 0.1 0.6 0.1 0.4 0.1 0.7 0.2 0.1 0 0.2 0.1z"/>
						<path class="s2" d="m592.5 570.3c-0.5-2.1-1.8-4.3-3.6-6.6-2.5 3-4 6.5-4.6 10.5l7-0.2z"/>
						<path class="s2" d="m605.7 562.1q1-1.5 1.8-3.1 0.1-0.4 0.1-0.7 0-0.4-0.1-0.7-0.2-0.4-0.6-0.7 0 0-0.1-0.1-1.9-1.4-4.8-2.2c0.5 3.5 1.2 6.7 2.1 9.7q0.4-0.4 0.7-0.8 0.5-0.7 0.9-1.4z"/>
						<path class="s2" d="m619.9 567.1q-1.2 1.2-2.3 2.5-1.4 1.5-2.5 3.1 0 0.1-0.1 0.1-0.2 0.4-0.2 0.7 0 0.4 0.2 0.7 0.3 0.4 0.6 0.8 0.4 0.6 0.9 1.2 0.4 0.5 0.9 0.9 0.1 0.2 0.2 0.3 0.2 0.1 0.4 0.2 0.1 0 0.1 0 0.1 0 0.2 0c0.2-0.1 0.5-0.2 0.6-0.4 0.9-2.2 1.3-4.3 1.3-6.5q0-1.8-0.3-3.6z"/>
						<path class="s2" d="m607.2 593.7c-0.3 1.1-0.4 2.1-0.4 2.9q0 1 0.3 1.8h-0.4 0.4q0.1 0 0.1 0.1 0.1 0 0.1 0 0.1 0 0.1 0h0.1 0.1c2.1-0.7 4.3-2 6.4-3.8-1.3-2-3.1-3.8-5.2-5.4-0.7 1.6-1.2 3.1-1.6 4.4z"/>
					</g>
				</g>
			</g>
			<g>
				<g>
					<path class="s7" d="m1062 454.5l-153.9-7.1v-53.2l153.9 7.1z"/>
					<path class="s7" d="m902.7 380.5h7.4v31.4h-7.4z"/>
					<path class="s2" d="m902.7 380.5h3.3v31.4h-3.3z"/>
					<path class="s7" d="m1054.7 388.8h10.4v69.8h-10.4z"/>
					<path class="s2" d="m1054.7 388.8h4.6v69.8h-4.6z"/>
				</g>
				<g>
					<path class="s7" d="m911.3 453.9l-277.9 29.6v-49.4l277.9-29.5z"/>
					<path class="s7" d="m911.3 446.3l-277.9 29.5v-41.7l277.9-29.5z"/>
					<path class="s2" d="m911.3 408.9l-277.9 29.5v-4.3l277.9-29.5z"/>
					<path class="s2" d="m633.4 434.1l8.5-0.9v52.7l-8.5 0.9z"/>
				</g>
				<path class="s2" d="m775.1 297.5h8.5v197.4h-8.5z"/>
				<path class="s2" d="m630.5 295h6.8v35.7h-6.8z"/>
				<g>
					<path class="s2" d="m726.5 339.6l-5-0.1v-23.8l5 0.1z"/>
					<path class="s2" d="m677.2 338.5l-5.1-0.1v-23.8l5.1 0.1z"/>
					<path class="s2" d="m779.3 317.8l-145.4-3.3v-5.9l145.4 3.3z"/>
					<path class="s2" d="m777.6 322.9l-142-3.2v-0.9l142 3.2z"/>
					<path class="s2" d="m777.6 328.8l-142-3.2v-0.8l142 3.2z"/>
					<path class="s2" d="m777.6 334.8l-142-3.2v-0.9l142 3.2z"/>
					<path class="s2" d="m777.6 340.7l-142-3.1v-0.9l142 3.2z"/>
					<path class="s2" d="m777.6 346.7l-142-3.2v-0.8l142 3.2z"/>
					<path class="s2" d="m777.6 352.6l-142-3.1v-0.9l142 3.2z"/>
					<path class="s2" d="m777.6 358.6l-142-3.2v-0.8l142 3.2z"/>
					<path class="s2" d="m777.6 364.6l-142-3.2v-0.9l142 3.2z"/>
					<path class="s2" d="m777.6 370.5l-142-3.2v-0.8l142 3.2z"/>
					<path class="s2" d="m777.6 376.5l-142-3.2v-0.9l142 3.2z"/>
					<path class="s2" d="m777.6 382.4l-142-3.1v-0.9l142 3.2z"/>
					<path class="s2" d="m777.6 388.4l-142-3.2v-0.8l142 3.1z"/>
					<path class="s2" d="m777.6 394.4l-142-3.2v-0.9l142 3.2z"/>
					<path class="s2" d="m777.6 400.3l-142-3.2v-0.8l142 3.1z"/>
					<path class="s2" d="m777.6 406.3l-142-3.2v-0.9l142 3.2z"/>
					<path class="s2" d="m777.6 412.2l-142-3.2v-0.8l142 3.2z"/>
					<path class="s2" d="m777.6 418.2l-142-3.2v-0.9l142 3.2z"/>
					<path class="s2" d="m777.6 424.1l-142-3.2v-0.8l142 3.2z"/>
					<path class="s2" d="m777.6 430.1l-142-3.2v-0.9l142 3.2z"/>
					<path class="s2" d="m769.9 315.9v142.1h-0.8v-142.1z"/>
					<path class="s2" d="m762.3 315.7v142.1h-0.9v-142.1z"/>
					<path class="s2" d="m754.6 315.6v142h-0.8v-142.1z"/>
					<path class="s2" d="m747 315.4v142.1h-0.9v-142.1z"/>
					<path class="s2" d="m739.3 315.2v142.1h-0.8v-142.1z"/>
					<path class="s2" d="m731.6 315v142.1h-0.8v-142.1z"/>
					<path class="s2" d="m724 314.9v142.1l-0.9-0.1v-142.1z"/>
					<path class="s2" d="m716.4 314.7v142.1h-0.9v-142.1z"/>
					<path class="s2" d="m708.7 314.5v142.1h-0.9v-142.1z"/>
					<path class="s2" d="m701 314.4v142.1l-0.8-0.1v-142.1z"/>
					<path class="s2" d="m693.4 314.2v142.1h-0.9v-142.1z"/>
					<path class="s2" d="m685.7 314v142.1h-0.8v-142.1z"/>
					<path class="s2" d="m678.1 313.8v142.1h-0.9v-142.1z"/>
					<path class="s2" d="m670.4 313.7v142.1l-0.8-0.1v-142.1z"/>
					<path class="s2" d="m662.8 313.5v142.1h-0.9v-142.1z"/>
					<path class="s2" d="m655.1 313.3v142.1h-0.8v-142.1z"/>
					<path class="s2" d="m647.5 313.1v142.1h-0.9v-142.1z"/>
					<path class="s2" d="m639.8 313v142.1h-0.8v-142.1z"/>
				</g>
				<g>
					<path class="s7" d="m701.5 426.4h74.9v64.7h-74.9z"/>
					<path class="s7" d="m701.5 426.4h74.9v8.6h-74.9z"/>
				</g>
				<g>
					<path class="s7" d="m1060.2 461.6l-277.9 29.5v-49.4l277.9-29.4z"/>
					<path class="s7" d="m1060.2 453.9l-277.9 29.6v-41.7l277.9-29.5z"/>
					<path class="s2" d="m1060.2 416.5l-277.9 29.5v-4.3l277.9-29.4z"/>
					<path class="s2" d="m782.4 441.8l8.4-0.9v52.7l-8.4 0.9z"/>
				</g>
			</g>
			<path class="s7" d="m760.8 567c-29.1 4.5-115.9 16.4-115.9 16.4 0 0 6.4-12.3 3-29.3-3.4-17.1-15.3-35.8-34.9-36.6q-1-0.1-2 0-0.4 0-0.7 0-0.9 0-1.7 0.1-0.5 0.1-1 0.1 0 0.1-0.1 0.1-0.5 0-1.1 0.1-0.4 0.1-0.8 0.2-0.2 0-0.4 0.1-0.1 0-0.2 0-1.5 0.3-3 0.8-0.7 0.2-1.4 0.4-0.4 0.1-0.9 0.3-1.3 0.4-2.6 1-1.1 0.4-2.1 0.8-0.1 0.1-0.1 0.1-0.6 0.3-1.2 0.5-0.6 0.3-1.2 0.6-0.5 0.3-1.1 0.6-0.6 0.3-1.2 0.6-0.7 0.4-1.3 0.8-1 0.6-2 1.2-2.4 1.5-4.7 3.2-0.4 0.3-0.8 0.6-0.3 0.2-0.5 0.4-1 0.7-1.9 1.5-0.6 0.5-1.1 0.9-0.5 0.5-1 0.9-0.5 0.5-1 0.9-0.4 0.4-0.7 0.8-0.4 0.3-0.8 0.7-1.2 1.2-2.3 2.4-0.3 0.4-0.7 0.8-1.5 1.8-2.9 3.6-0.7 1-1.3 1.9-0.4 0.5-0.7 1-0.3 0.4-0.5 0.9-0.4 0.5-0.6 1-0.3 0.5-0.6 1-0.7 1.3-1.3 2.6-0.1 0.3-0.3 0.6-0.9 2.3-1.6 4.5-0.1 0.4-0.2 0.8 0 0.1 0 0.2-0.1 0.3-0.2 0.6-0.3 1.4-0.5 2.8c-3 22.5-3.8 31-3.8 31 0 0-3.4 4.3-10.2 4.3-6.9 0-85.1-9.4-104.7-12.8-19.6-3.4-22.1-7.7-28.1-14.5-5.9-6.8-5.1-22.9-5.1-30.6 0-4.1-0.5-8.9-0.4-13.3q0-0.7 0-1.4 0.1-1.1 0.2-2 0-0.3 0-0.5 0.3-2 0.9-3.6 0.1-0.3 0.2-0.6 0-0.2 0.1-0.4 0.1-0.1 0.2-0.3 0.1-0.3 0.3-0.5l7 5.8c0.2-8.4 0.9-26.6 0.9-26.6l16.6-37.4q-0.1 0.1-0.2 0.1 0.1 0 0.2-0.1 0.3-0.2 0.6-0.4 0.3-0.2 0.5-0.4 1.7-1 3.5-1.8c17-10.2 34.1-22.1 34.1-22.1l24.6-24.7 48.5-62.1c0 0 4.6-4.6 8.7-8.4 3.2-3.1 7.4-5 11.8-5.5 15.1-1.8 51.8-6.1 56.6-6.1 5.9 0 102.3 4.3 109.9 3.4 7.5-0.8 14.9-0.8 16.7 6 1.8 6.8 15.5 98.6 15.5 118.2 0 4.5 0.2 11.6 0.5 20.3 0.8 29.6 1.9 76.9-5.5 93.5z"/>
			<path fill-rule="evenodd" class="s25" d="m575.9 534.3q-0.4 0.4-0.7 0.7-0.4 0.4-0.8 0.8-1.2 1.2-2.3 2.4-0.3 0.4-0.7 0.8-1.5 1.8-2.9 3.6-0.7 1-1.3 1.9-0.3 0.5-0.7 1-0.3 0.4-0.5 0.9-0.3 0.5-0.6 1-0.3 0.5-0.6 1-0.7 1.3-1.3 2.6-0.1 0.3-0.3 0.6-0.9 2.3-1.6 4.5-0.1 0.4-0.2 0.8 0 0.1 0 0.2-0.1 0.3-0.2 0.6-0.3 1.4-0.5 2.8c-2.5 18.9-3.5 27.9-3.8 30.3 0 0.5-0.2 0.9-0.6 1.3-1.2 1.1-4.4 3.7-9.6 3.7-6.8 0-85.1-9.4-104.7-12.8-19.6-3.4-22.1-7.7-28.1-14.5-5.9-6.8-5.1-22.9-5.1-30.6 0-4.1-0.5-8.9-0.4-13.3q0-0.7 0-1.4 0.1-1.1 0.2-2 0-0.3 0-0.5 0.3-2 0.9-3.6 0.1-0.3 0.2-0.6 0.1-0.2 0.2-0.4 0-0.2 0.1-0.3 0.1-0.3 0.3-0.5l7 5.8c0 1.4 0 2.5 0 3.2 0 5.1-0.8 15.3 19.6 18.7 20.4 3.4 29.8 3.4 32.3 3.4 2.6 0 11.1 1.7 16.2-9.3q1.2-2.6 2.5-5.4c0.3-0.8 1.2-1.2 2-1.1 18.9 1.7 35.8-11.6 38.3-13.5q0.4-0.4 1.8-1.8c0.6-0.6 1.5-0.8 2.3-0.4l29.8 13.3 3.9 1.8zm-114.3 29.4v-10.5c0-1-0.8-1.9-1.8-2l-30.7-4.4c-1.2-0.2-2.3 0.7-2.3 2v9.2c0 1 0.7 1.8 1.6 2l30.8 5.7c1.2 0.3 2.4-0.7 2.4-2z"/>
			<path class="s26" d="m501.7 505.4c-4.9 7.9-9.4 16.9-13.2 25q-1.7 3.5-3.1 6.6c-5.1 11.1-13.6 9.4-16.2 9.4-2.5 0-11.9 0-32.3-3.4-20.4-3.4-19.6-13.6-19.6-18.7 0-0.7 0-1.8 0.1-3.2 0.1-8.4 0.8-26.6 0.8-26.6 0 0 62.1 12.8 80.8 11.1q1.4-0.2 2.7-0.2z"/>
			<path fill-rule="evenodd" class="s27" d="m501.7 505.4c-4.9 7.9-9.4 16.9-13.2 25q-1.7 3.5-3.1 6.6c-5.1 11.1-13.6 9.4-16.2 9.4-2.5 0-11.9 0-32.3-3.4-20.4-3.4-19.6-13.6-19.6-18.7 0-0.7 0-1.8 0.1-3.2 0.1-8.4 0.8-26.6 0.8-26.6 0 0 62.1 12.8 80.8 11.1q1.4-0.2 2.7-0.2z"/>
			<path class="s28" d="m560.3 480.9c-1.5 2.9-21.5 25.3-29.3 33.4-1.4 1.5-2.4 2.4-2.8 2.8-2.6 1.9-20.3 15.9-39.7 13.3 3.8-8.1 8.3-17.1 13.2-25q1.6-2.6 3.3-4.9c7.6-11.1 36.7-34.5 50.7-39.8 5.4 7.4 6.3 16.8 4.6 20.2z"/>
			<path class="s26" d="m461.6 553.2v10.7c0 1.2-1.1 2.2-2.3 1.9l-31-5.7c-0.9-0.2-1.6-1-1.6-1.9v-9.5c0-1.1 1.1-2 2.3-1.9l30.9 4.5c1 0.1 1.7 0.9 1.7 1.9z"/>
			<path class="s2" d="m626.6 429.8l35.8-57.8c0 0 6.8-16.2 26.3-17.9 19.6-1.7 29.8-2.5 29.8-2.5 0 0 11.1-0.9 11.1 9.3 0 10.2-3.4 46-2.6 46.8 0.9 0.9 0 14.5-11 20.4-11.1 6-52.2 26.4-52.2 26.4l-34.6-1.7z"/>
			<path class="s0" d="m681.9 359.2c0-1.7 34.1-1.7 36.6-1.7 2.6 0 5.7 4.1 5.8 6.3 0.2 2.2-0.7 38-1.5 43.1-0.9 5.1-0.1 14-6.4 17.6-6.4 3.7-43 21.5-43 21.5 0 0 8.5-76.6 8.5-86.8z"/>
			<path class="s0" d="m678.1 360.1l-6.6 85.9-9.1 5.1-30.7-1.7-1.7-18.7 35.8-57c0 0 3.4-7.6 12.3-13.6z"/>
			<path class="s2" d="m753.4 522.2v18.1c0 0-47.2 6.3-52.5 6.2-5.3-0.1-14.4 0-15.4-15.8z"/>
			<path class="s25" d="m753.4 522.2l-67.9 8.5c0 0-1.9 1.2-1.9-4.7l1-0.1 67.1-7.6z"/>
			<path class="s2" d="m656.1 357.5c-4.8 7.7-27.8 51.9-37.1 63-9.4 11.1-20.4 22.1-26.4 23.8-6 1.7-84.3-0.9-117.4-11.1l15.8-15.2 8-7.7 45.8-58.7 2.7-3.4c0 0 0-1.7 7.6-1.7 7.7 0 94.5 3.4 94.5 3.4 0 0 11.3 0 6.5 7.6z"/>
			<g>
				<path class="s0" d="m589.1 430.9c-29 0-81.8-2.8-97.3-13l7.5-7.3 45.8-58.5c15.6 0.1 90.3 1.1 100.1 3.4q4.5 1 5.3 3.1c0.8 2-1 4.6-2.5 6.7-0.5 0.8-1.1 1.5-1.4 2.2-2 3.9-22.2 39.2-26.3 44.2-1.5 1.7-3.4 4.2-5.5 6.9-3.8 5-8.1 10.6-9.7 11.7-0.5 0.2-5.3 0.6-16 0.6z"/>
				<path fill-rule="evenodd" class="s2" d="m645.4 355c11 2.5 3.4 9.3 1.7 12.7-1.7 3.4-22.2 39.2-26.4 44.3-4.3 5.1-12.8 17-15.3 18.7-0.6 0.4-6.9 0.7-16.3 0.7-27.8 0-82.9-2.6-98.1-13.4l8-7.7 45.8-58.7c15.6 0.1 90.7 1.1 100.6 3.4zm-145.6 55.9h-0.1v0.1l-7.1 6.9c6.9 4.2 21.7 7.6 42.8 9.8 23.6 2.5 47.1 2.7 53.7 2.7 10.1 0 15-0.4 15.8-0.6 1.6-1.2 6-6.9 9.6-11.5 2-2.7 4-5.2 5.4-7 4.1-4.9 24.3-40.1 26.3-44 0.3-0.7 0.9-1.5 1.4-2.4 1.4-1.9 3.1-4.4 2.5-6.1q-0.7-1.9-5-2.9c-9.7-2.2-83.7-3.1-99.8-3.3z"/>
			</g>
			<g>
				<path class="s0" d="m589.1 430.9c-29 0-81.8-2.8-97.3-13l7.5-7.3 45.8-58.5c15.6 0.1 90.3 1.1 100.1 3.4q4.5 1 5.3 3.1c0.8 2-1 4.6-2.5 6.7-0.5 0.8-1.1 1.5-1.4 2.2-2 3.9-22.2 39.2-26.3 44.2-1.5 1.7-3.4 4.2-5.5 6.9-3.8 5-8.1 10.6-9.7 11.7-0.5 0.2-5.3 0.6-16 0.6z"/>
				<path fill-rule="evenodd" class="s2" d="m645.4 355c11 2.5 3.4 9.3 1.7 12.7-1.7 3.4-22.2 39.2-26.4 44.3-4.3 5.1-12.8 17-15.3 18.7-0.6 0.4-6.9 0.7-16.3 0.7-27.8 0-82.9-2.6-98.1-13.4l8-7.7 45.8-58.7c15.6 0.1 90.7 1.1 100.6 3.4zm-145.6 55.9h-0.1v0.1l-7.1 6.9c6.9 4.2 21.7 7.6 42.8 9.8 23.6 2.5 47.1 2.7 53.7 2.7 10.1 0 15-0.4 15.8-0.6 1.6-1.2 6-6.9 9.6-11.5 2-2.7 4-5.2 5.4-7 4.1-4.9 24.3-40.1 26.3-44 0.3-0.7 0.9-1.5 1.4-2.4 1.4-1.9 3.1-4.4 2.5-6.1q-0.7-1.9-5-2.9c-9.7-2.2-83.7-3.1-99.8-3.3z"/>
			</g>
			<path class="s2" d="m480.8 583.4c-2-10.8-2.5-23.7 2.7-33.9 4.4-7.4 12.4-11.6 20.2-14.5 6.2-2.1 12.5-3.4 18.9-4.3-6 2.6-12 4.7-17.6 7.4-6.9 3.4-13.8 7.2-17.8 13.5-2.3 3.9-3.4 8.4-4.3 12.9-1.1 6.2-1.6 12.5-2.1 18.9z"/>
			<path class="s2" d="m543.3 587.3c0.7-36.6 20.6-82.5 63.1-81.6 5.4 0.2 10.8 1 16 2.4-10.5-1.1-21.3-0.7-31.2 3-30.3 11.1-42.3 47-47.9 76.2z"/>
			<path class="s26" d="m535.2 547c0 0-25.1-0.3-28.1 0-3 0.3-14.2-0.7-15 13.4 25.6-0.4 37.6 0 37.6 0z"/>
			<path class="s28" d="m517.7 571.1c0 0-13.7-0.9-18.3 0-4.7 0.8-0.4 13.8 13.2 13.7 13.6-0.1 8.5-13.7 5.1-13.7z"/>
			<path class="s29" d="m512.3 582.7c-2.8 0-5.1-2.2-5.1-5.1 0-2.8 2.3-5.1 5.1-5.1 2.9 0 5.2 2.3 5.2 5.1 0 2.9-2.3 5.1-5.2 5.1z"/>
			<g>
				<path fill-rule="evenodd" class="s27" d="m746.6 483.4c2.6-51.8-12.8-139.5-12.8-139.5 0.1 0-33.1 1.7-47.6 2.6-14.5 0.8-26.4 17-29.8 22.1-3.4 5.1-32.3 53.6-32.3 53.6 0 0 7.6 78.3 9.7 94.7 29.4 18.2 20.1 55.9 20.1 55.9l84.2-11.9 0.2-19.1c5.3-14.7 0-23.4 0-23.4v-11.9-14.5c0 0-1-9.4 13.4-9.4 0 11.9 0 23.9 0 23.9h-20.5"/>
				<path class="s2" d="m685.5 509.4c20.6-21.9 50.6-35.3 80.8-35.9-29.9 3-58.6 15.8-80.8 35.9z"/>
				<path class="s28" d="m434.8 457.1l-16.6 37.4c0 0-0.7 18.2-0.8 26.6l-7.1-5.8q0.1-0.2 0.2-0.4 0-1.2 0.1-2.7 0.1-0.7 0.1-1.4 0.1-1.3 0.3-2.8 0.1-0.4 0.2-0.8 0-0.4 0.1-0.9 0.1-0.6 0.2-1.2 0.1-0.7 0.2-1.4 0.3-1.7 0.7-3.5 0.1-0.3 0.1-0.6 0.3-1.2 0.6-2.4 0.2-0.9 0.4-1.7 0.4-1.7 0.9-3.5 0.6-2.1 1.3-4.3 0.3-0.7 0.5-1.5 0.3-0.7 0.5-1.4 0.3-0.7 0.6-1.5 0-0.1 0-0.2 0.5-1.1 1-2.3 0.3-0.9 0.7-1.8 0.3-0.6 0.6-1.3 0.5-1.3 1.2-2.6 0.3-0.5 0.5-1.1 0.3-0.5 0.6-1 0-0.1 0-0.2 0.3-0.5 0.6-1c1.2-2.1 2.4-4.1 3.8-6q0.2-0.2 0.3-0.4 0.7-1 1.4-1.8 0.5-0.6 0.9-1.1 0.3-0.3 0.5-0.5 1-1.1 2-2 0.2-0.3 0.4-0.5 0.6-0.5 1.2-1 0.2-0.1 0.4-0.3 0.6-0.5 1.3-1 0-0.1 0.1-0.1z"/>
			</g>
			<g>
				<path class="s2" d="m635.4 418.7l-8.6 13.1 1.5 21 18.9 7.8c2.6 1.1 5.4-1 5.1-3.9l-4.6-38z"/>
				<path class="s30" d="m642.1 439c-0.1-1.7 1.1-3.2 2.9-3.3 4.9-0.1 14.2-0.6 14.8-2.5 0.9-2.5-1.8-9.9-1.8-9.9 0 0-11.5 0.3-17.1 0.8-1.9 0.1-3.5 1.4-4 3.2-0.7 2.1-1.3 5.5-1.3 8.9-0.1 3.7 1.6 8.2 2.4 10.7 0.3 1 1.1 1.8 2.2 2.1l1.4 0.5c1 0.3 2-0.6 1.8-1.7-0.5-2.1-1.1-5.4-1.3-8.8z"/>
				<path class="s2" d="m644.4 424.5c0 0-2.5-14.2 6.1-15.1 8.5-0.8 9.1 0 9.7 0 0.5 0 5.1-4 8.3 7.4 3.2 11.3 4.1 23.3 3.2 27.5-0.8 4.3-1.7 9.4-5.9 10.2-4.3 0.9-14.6 0-14.6 0 0 0-6.7-3.8-7.1-12.9-0.4-9.2 0.3-17.1 0.3-17.1z"/>
				<path class="s10" d="m648.4 412.8q0 0 0.2 0c1.6-0.2 11.6-3.8 15.9-1.3 4.2 2.6 5.1 17.1 5.1 17.1 0 0-0.8-21.3-21.2-15.8z"/>
				<path class="s10" d="m654.3 453.2c0 0 10.2 1.7 12.8-0.8 2.5-2.6 3.1-4.6 2.5-10.7 0 0 0.9 12.4-15.3 11.5z"/>
			</g>
		</g>
		<g>
			<g>
				<path class="s1" d="m956.6 622.6l-145.2 2.3c0 0-86.9 9.4-73.9 11.2 13 1.9 154.1 9.5 154.1 9.5 0 0 60.1 4.9 85.4-1.8 25.2-6.6 98-15.7 98-15.7 0 0 85.5-13.3 95.7-14.6 10.3-1.2-37.7-3-56.4-3.3-18.6-0.4-133.3 2.8-133.3 2.8z"/>
			</g>
			<g>
				<path class="s2" d="m819.2 606.5c0 10.3-5.8 19-13.7 22.1q-2.9 1.1-6.2 1.1c-4 0-7.7-1.4-10.8-3.7-3-2.3-5.5-5.6-7.1-9.5-1.3-3-2-6.4-2-10 0-11.2 6.9-20.5 15.9-22.7q2-0.4 4-0.4c11 0 19.9 10.3 19.9 23.1z"/>
				<path class="s2" d="m799.3 629.7h-21.1c-2.2 0-4.3-0.4-6.3-1.3-8.6-3.7-14.8-14.7-14.8-27.7 0-16 9.4-28.9 21.1-28.9 7.1 0 13.3 4.7 17.1 12-9 2.2-15.9 11.5-15.9 22.7 0 3.6 0.7 7 2 10 1.6 3.9 4.1 7.2 7.1 9.5 3.2 2.3 6.9 3.7 10.8 3.7z"/>
			</g>
			<g>
				<path class="s23" d="m1153.7 573.8c0 17.6 4.9 32.7 9.9 32.7 5 0 8.3-14.7 9.1-32.2 0.8-17.8-3.3-31.5-8.3-31.5-5 0-10.7 13.4-10.7 31z"/>
				<path class="s24" d="m1175.9 565q-1.4 1.1-3 2.3v-0.3c-0.1-7.9-0.6-16-3-23.6-0.6-2-1.3-3.8-2.5-5.4l-0.1-0.1q-0.2-0.3-0.4-0.5-0.5-0.7-1.2-1.1-0.7-0.4-1.5-0.4c-1.8 0-3.4 2-4.4 3.5 2.1-3.3 1.4-3.2 3.5-4q0.4-0.1 0.8-0.2l-1.1-0.7c-0.3-0.8-4.2-1.1-8.8-1.1 3.4-5.5 8-9.7 12.3-9.2 6.4 0.7 8.5 10.1 9.5 15.8q0.2 1.4 0.4 2.4c0.6 3.5-0.1 15.8-0.5 22.6z"/>
				<g>
					<path class="s2" d="m1159.3 584c-2.5 3-0.6 8.1 0.1 11.3 0-1.4 1-10.6 0.3-11.7q-0.2 0.2-0.4 0.4z"/>
					<path class="s2" d="m1159.6 566.9q-0.3-2.9-1.2-6.1c-0.7 3-1.1 6.5-1.3 10.3l2.2-0.4z"/>
					<path class="s2" d="m1164.8 596.3h-0.1z"/>
					<path class="s2" d="m1164.3 557.6c0.6-2.4 1.3-5.6-1-7.3q0.3 4.6 0.8 8.7 0.1-0.7 0.2-1.4z"/>
					<path class="s2" d="m1168.5 576.2c0.5-3.2 0.5-6.6 0.3-9.8-1.1 3.2-2 6.5-0.3 9.8z"/>
					<path class="s2" d="m1165 590.4c-0.2 2.1-0.3 3.9 0 5.6 0.7-0.8 1.4-2.2 2-3.9q-0.7-2.7-1.7-4.9-0.2 1.7-0.3 3.2z"/>
					<path class="s2" d="m1168.6 580.5c-0.9-2.4-2.7-5.3-2.8-8.2 0.3-5.6 3.7-13 3.4-19.9-1.2 4.7-2.6 9.3-4.2 13.7q-0.1 0.2-0.2 0.4c-0.1 0.1-0.2 0.1-0.4 0.1-2.3-4.4-2.3-11.4-3.7-18.7q-0.3 0.6-0.6 1.2c1.1 7.2 1.9 14.3 2.3 21.5-0.6 3.4-4.3 6.1-6.4 7.8q0 1.9 0.1 3.8c1.7-1.4 3.8-2.3 5.7-2.5 3 1.3 0.1 20.1 0.5 24.9q0.2 0.1 0.3 0.1 0.1 0 0.3 0c0.4-3.5 0.1-23.1 2.7-22.9q2.7 2.3 4.7 6.1c0.2-1.2 0.3-2.2 0.4-3.4-0.8-1.2-1.5-2.6-2.1-4z"/>
					<path fill-rule="evenodd" class="s2" d="m1172.9 567v0.3c-0.1 11.3-1.2 22.9-4.5 33.7-1.4 3.9-2.8 8.8-6.7 10.8-6.6 0.6-8.1-11.6-8.6-16.7-0.6-5.9-0.8-11.3-0.8-16.1v-0.4c0-18.3 3.5-29.4 5.2-33.3q0.1-0.3 0.2-0.5c0.3-1 1.7-3.6 0.9-2.9-4.3 3.9-7.2 25.8-7.3 37.2-0.1 2.1 0 3.9 0.2 5.1q0-0.3 0-0.5c1 9.5 0 22.7 8.3 28.7-3.4 2.3-16.2 0.4-20 0.5-6.3-0.7-8.7-7-11.6-15q0.1 0 0.2-0.1c-4.7-12.3 3.6-64.5 9.7-63.7 0.5-0.4 9.1-0.9 16.1-0.8 4.6 0.1 8.6 0.4 8.8 1.2l1.1 0.7q-0.4 0-0.8 0.2c-2 0.8-1.4 0.7-3.5 4 1-1.5 2.6-3.5 4.5-3.5q0.7 0 1.4 0.4 0.7 0.4 1.2 1 0.2 0.3 0.5 0.6v0.1c1.2 1.6 1.9 3.4 2.6 5.4 2.3 7.6 2.8 15.7 2.9 23.6zm-1 0.9c-0.2-9.2-1.4-20.7-7.2-24-1.8 0-3.1 1.3-4.1 2.8-2.9 3.9-5.2 17.4-5.3 30.5q0 0.5 0 1c0 12.8 2.1 25 8 27.1 8.7-5.1 7.7-21 8.8-30.4-0.1-2-0.1-4.4-0.2-7z"/>
				</g>
			</g>
			<g>
				<path class="s23" d="m1000.5 632.6c-10.3 0-18.6-18-18.6-40.3 0-22.4 8.3-40.4 18.6-40.4 10.3 0 18.6 18 18.6 40.4 0 22.3-8.3 40.3-18.6 40.3z"/>
				<path class="s24" d="m1024.9 598.7c-0.7 4.2-5.6 7.7-7.1 7.6 2.8-16.4-2.4-46.1-4.9-49.4-2.5-3.4-6.8-8-9.1-9.2-8.2-1.9-15.1-3.3-22.4-3.4 16.6-26.9 34.9-20.1 42.4 11 4.1 10.7 1 35.2 1.1 43.4z"/>
				<path class="s24" d="m954.4 613.3c-12.9-0.2-38-1.5-47.5-2.1 1-2.1 2-4.5 2.8-6.5 16.7-0.9 34.9-1.7 43.5-2.1 0.2 4.1 0.7 7.7 1.2 10.7z"/>
				<path fill-rule="evenodd" class="s2" d="m1019.6 585.7c0 0.5 0 1.8 0 2.2q0 0.3 0 0.7 0 0.8-0.1 1.5 0 0.4 0 0.7 0 1.1-0.1 2.2-0.1 1.6-0.2 3.2 0 0 0 0.1-0.1 0.3-0.1 0.7-0.2 1.6-0.4 3.2v0.1q-0.2 1.7-0.4 3.3-0.1 0.1-0.1 0.3-0.2 1.2-0.4 2.4-0.1 0.4-0.2 0.8v0.1q-0.3 1.4-0.6 2.7 0 0.2-0.1 0.4-0.1 0.6-0.3 1.2 0 0.3-0.1 0.5-0.2 0.7-0.4 1.5-0.3 1.1-0.6 2.2-0.1 0.2-0.1 0.4-0.2 0.6-0.4 1.2 0 0.1-0.1 0.2-0.4 1.1-0.8 2.2 0 0.2-0.1 0.3-0.2 0.5-0.4 1 0 0.2-0.1 0.4-0.7 1.6-1.4 3.2 0 0.1-0.1 0.2-0.2 0.5-0.5 1 0 0.1-0.1 0.2-0.4 0.7-0.8 1.4-0.2 0.5-0.5 0.9-0.1 0.3-0.3 0.5 0 0.1-0.1 0.2-0.2 0.4-0.4 0.7-0.3 0.4-0.6 0.9-0.4 0.5-0.7 0.9l-0.1 0.1q-0.3 0.4-0.6 0.7v0.1q-0.4 0.5-0.8 0.9-0.3 0.3-0.6 0.6-0.3 0.3-0.5 0.5l-0.1 0.1q-0.7 0.7-1.5 1.2-0.6 0.5-1.1 0.8h-0.1q-0.5 0.3-1 0.6-0.5 0.2-1 0.4-0.2 0.1-0.4 0.1-0.2 0.1-0.3 0.1-0.6 0.1-1.1 0.2-0.2 0-0.4 0.1-0.2 0-0.3 0-0.3 0-0.5 0-0.2 0-0.4 0-0.3 0-0.7-0.1-0.7-0.1-1.4-0.3c-2.9-1-5.5-3.5-7.8-7.3q-0.2-0.4-0.4-0.7-0.7-1.3-1.4-2.8-1.2-2.9-2.2-6.4-0.5-1.7-1-3.6-0.4-1.9-0.7-3.9-0.2-0.9-0.3-1.8-0.2-1.1-0.3-2.3-0.3-2-0.4-4.1-0.3-3.7-0.3-7.6 0-3.1 0.2-6.3v-0.1q0.1-1.2 0.2-2.3 0.1-1.2 0.2-2.4 0.3-3.5 0.9-6.8c0.8-4.9 2-9.5 3.4-13.7q0.7-2 1.5-3.9c2.1-5 4.6-9.1 7.3-11.8l0.1-0.1q0.8-0.8 1.6-1.4 0.2-0.2 0.5-0.4 0.5-0.3 1-0.6 0.6-0.4 1.3-0.7 0.9-0.4 1.8-0.6 1-0.2 1.9-0.2 0.2 0 0.4 0 0.3 0 0.5 0 0.2 0.1 0.4 0.1 0.2 0 0.4 0.1 0.2 0 0.5 0.1 0.2 0 0.4 0.1 0.2 0.1 0.4 0.2 0.3 0.1 0.5 0.2 0.1 0 0.2 0.1 0.7 0.3 1.4 0.8 0.3 0.2 0.6 0.4 0.3 0.3 0.7 0.6 1.7 1.6 3.2 3.8 0.1 0.1 0.2 0.2 0.3 0.6 0.6 1.1 0.1 0.1 0.1 0.1 0.7 1.2 1.4 2.6v0.2q0.2 0.5 0.5 1 0 0.1 0.1 0.2 0 0.1 0.1 0.3 0.1 0.4 0.3 0.8 0.2 0.5 0.4 1.1 0 0.1 0 0.1 0.5 1.2 0.8 2.4 0.1 0.3 0.2 0.5 0.1 0.5 0.3 1 0 0.3 0.1 0.6 0.1 0.5 0.3 1 0 0.3 0.1 0.5 0.2 0.9 0.4 1.9 0.1 0.4 0.2 0.7 0.1 0.5 0.2 1 0 0.4 0.1 0.8 0.1 0.5 0.2 0.9 0.1 0.5 0.1 1 0.1 0.4 0.1 0.8 0.1 0.7 0.2 1.3 0.1 0.5 0.1 0.9 0.1 0.8 0.2 1.5 0 0.4 0.1 0.8 0 0.6 0.1 1.2 0 0.4 0 0.8 0.1 0.7 0.1 1.3 0 0.4 0.1 0.8 0 0.9 0 1.9v0.2c0.1 0.6 0.1 1.3 0.1 1.9zm-5 21.1q0.2-0.8 0.4-1.6c0.8-3.7 1.3-7.6 1.7-11.7q0.1-2.3 0.2-4.5 0-0.7 0-1.4 0-1.5-0.1-2.9c-0.2-6.5-1.4-12.4-3.1-17.3q-0.6-1.9-1.4-3.6-0.2-0.5-0.4-1-0.7-1.5-1.5-2.7-1-1.6-2.1-2.8-2.3-2.4-4.5-2.7-0.4 0-0.9 0-0.1 0-0.2 0c-2.5 0.1-4.9 1.1-6.9 2.9q-1.2 1.1-2.3 2.5c-4.8 6.3-7.8 17.7-8.9 30.8q-0.2 2.4-0.3 4.7 0 0.5 0 0.9 0 2.5 0.2 4.9c0.2 3.3 0.7 6.4 1.4 9.3 0.7 3.5 1.8 6.6 2.9 9.3 1.1 2.4 2.3 4.5 3.5 6.1 1.3 1.6 2.5 2.7 3.8 3.3q0.7 0.3 1.3 0.3 0.4 0 0.7 0 0.3 0 0.7 0c3.3-0.2 6.3-2.2 8.8-5.5 2.5-3.3 4.5-8 6.1-13.5q0.5-1.8 0.9-3.8zm-0.1-1.7q-0.2 0.9-0.4 1.8-0.4 1.5-0.8 3-1-1.4-2.1-2.6-3.3-3.6-7.3-6.1-0.1 0-0.2-0.1-0.1 0-0.1 0-0.1 0-0.2 0c-0.4 0-0.7 0.3-0.9 0.7q0 0.1 0 0.2-0.9 3.2-1.6 6.7-0.2 1.5-0.5 3c-0.9 5.5-1.6 11.3-1.9 17.4q-0.2 0-0.4 0-0.3 0-0.6-0.1-0.3 0-0.6-0.1-0.2 0-0.4-0.1 1.2-10.2 1.8-19.8 0.3-4.3 0.4-8.5v-0.1c0-0.6-0.2-1.1-0.5-1.5-0.4-0.4-0.8-0.7-1.4-0.7q-3.8 0-7.6 1.1-2.1 0.6-4.1 1.5-0.2-2.1-0.2-4.4 0-0.4 0-0.7 6.3-2.3 12.1-6.9c0.6-0.4 0.9-1.2 0.9-2v-0.1c-0.3-5.3-1-10.8-1.9-16.4q-0.9-5-1.9-10.1 0.8-1.1 1.7-2c1.9 9.1 3.7 17.3 5.8 23.4 0.1 0.4 0.4 0.6 0.7 0.6 0.3 0 0.6-0.1 0.8-0.4q2-3.3 3.8-6.6 1.2-2.2 2.3-4.4 1.1-2.3 2.1-4.5 0.4-0.9 0.8-1.7 0.2 0.6 0.5 1.1 0.3 0.9 0.6 1.8c-3.3 8.1-6.2 15.6-7.9 22q0 0.1 0 0.1-0.1 0.3-0.1 0.6 0 0.7 0.3 1.3z"/>
				<g>
					<path class="s2" d="m991.2 618.2l1.9-13.3-0.8-2.7q-0.7 0.3-1.4 0.8-0.7 0.5-1.4 1.2 0 0-0.1 0.1-0.6 0.6-0.9 1.5-0.3 0.9-0.3 1.8 0 0.4 0.1 0.8 0.7 5.5 2.9 9.8z"/>
					<path class="s2" d="m1000.8 545.4q-0.2 0-0.3 0-0.3 0.1-0.5 0.1-0.3 0.1-0.6 0.2-0.2 0.1-0.5 0.2-0.2 0-0.3 0.1-0.2 0-0.3 0.1-0.4 0.2-0.7 0.3-0.4 0.2-0.7 0.4-0.6 0.4-1.1 0.7-0.2 0.2-0.4 0.4-0.9 0.7-1.7 1.5h-0.1c-2.8 2.8-5.3 6.9-7.4 12q-0.8 1.9-1.5 4c-1.4 4.1-2.6 8.8-3.5 13.8q-0.5 3.3-0.9 6.8-0.2 2.3-0.4 4.7-0.1 3.3-0.1 6.4 0 4 0.2 7.6 0.2 2.2 0.4 4.2 0.2 1.2 0.3 2.3 0.2 0.9 0.3 1.8 0.4 2 0.8 3.9 0.4 1.9 0.9 3.7 1 3.5 2.4 6.4 0.6 1.5 1.3 2.8 0.3 0.4 0.5 0.8c2.2 3.8 4.9 6.5 8 7.5q0.8 0.2 1.5 0.3 0.2 0.1 0.4 0.1l-3.8 0.9q-0.8 0.2-1.6 0.3-1.1 0.2-2.2 0.2h-0.1q-1.2 0-2.4-0.2l-18.2-2.9q-0.7-0.1-1.4-0.3-2-0.5-3.6-1.8-0.3-0.2-0.6-0.5-0.9-0.8-1.7-1.9-0.6-0.8-1-1.7l-3.6-7.9c0 0-1.2-3.5-2.2-9.4-0.5-3-1-6.6-1.2-10.7-0.4-9 0.3-20.4 4.3-32.5 2.5-7.7 5.5-13.8 7.4-18.2 1.8-4.2 8.5-7.4 13.1-7.5q1.8 0 3.5-0.1c6.2 0 11.5 0 19.3 1.1z"/>
					<path class="s2" d="m1006 546.1q-2.8-0.4-5.2-0.7 0.7-0.1 1.4-0.2 0.2 0 0.5 0.1 0.4 0 0.9 0.1 0.2 0 0.4 0.1 0.3 0 0.5 0.1 0.3 0 0.5 0.1 0.2 0.1 0.4 0.2 0.2 0.1 0.5 0.2 0.1 0 0.1 0z"/>
					<path class="s2" d="m992.8 582.2c-0.3-2.8-1.2-5.7-2.5-8.7-1.8 3.9-2.9 8.5-3.3 13.7l5-0.3z"/>
					<path class="s2" d="m1002.4 571.5q0.7-2.1 1.2-4.1 0.1-0.5 0.1-1 0-0.4-0.1-0.8-0.1-0.6-0.4-1 0 0 0-0.1c-0.9-1.2-2.1-2.2-3.5-2.9 0.3 4.5 0.8 8.8 1.5 12.7q0.3-0.5 0.5-1.1 0.4-0.9 0.7-1.7z"/>
					<path class="s2" d="m1010.8 581.2q-0.9 1.6-1.7 3.2-1 2-1.8 4.1 0 0.1 0 0.2-0.2 0.4-0.2 0.8 0 0.6 0.2 1 0.2 0.5 0.4 1 0.3 0.8 0.7 1.6 0.2 0.6 0.6 1.2 0 0.2 0.1 0.3 0.2 0.2 0.3 0.2 0.1 0.1 0.1 0 0.1 0 0.1 0c0.2 0 0.4-0.2 0.5-0.5 0.6-2.8 0.9-5.6 0.9-8.5q0-2.2-0.2-4.6z"/>
					<path class="s2" d="m1001.7 612.7c-0.2 1.4-0.4 2.7-0.4 3.8q0 1.3 0.3 2.2l-0.3 0.1 0.3-0.1q0 0.2 0.1 0.2 0.1 0.1 0.1 0h0.1c1.6-0.9 3.1-2.6 4.7-4.9-1-2.6-2.3-4.9-3.8-7.1-0.5 2.1-0.9 4-1.1 5.8z"/>
				</g>
			</g>
			<g>
				<path fill-rule="evenodd" class="s7" d="m1182.2 528c-0.4 3-0.3 5.9 0 7.9-2 1.3-4.5 3.1-6.2 4.1-1-5.8-3.1-15.1-9.5-15.8-7.5-0.8-15.7 12.4-17.4 21.5-0.7 3.7-1.9 10.7-3.2 17.7l-3.6 8c-0.9 2.1-2.8 3.5-5 3.9q-1.3 0.2-3 0.5-0.4 0.1-0.8 0.2-1.8 0.3-4 0.6-0.4 0.1-0.8 0.2c-2.7 0.5-5.7 1-8.9 1.6q-0.6 0.1-1.1 0.2c-10.1 1.7-22.4 3.9-34.4 6q-1 0.2-1.9 0.4-4.2 0.7-8.2 1.4-0.9 0.1-1.8 0.3c-5.8 1-11.4 2-16.4 2.9q-0.4 0-0.8 0.1-2.3 0.4-4.4 0.8-0.6 0.1-1.1 0.2-0.4 0-0.7 0.1-0.7 0.1-1.4 0.2-2.1 0.4-3.8 0.7-0.6 0.1-1.2 0.2-0.2 0-0.5 0.1-0.9 0.1-1.6 0.2-0.5 0.1-0.9 0.2-2 0.3-3.1 0.5c-3.4 0.5-3.3-7.5-3.3-11.6 0-2.2-0.9-14.1-1.9-27.1q-0.2-3-0.4-6.1l-8.8 1.5c-3.5-10.4-9.6-22.1-17.9-22.1-13.2 0-21.5 14-24.8 20.7q-0.1 0-0.1 0.1c-8.7 0.5-23.6 0.6-26.7-0.3-3.6-1-1.8-9-1.8-9l6.3-25.3c6.6-9.4 10.7-21.8 6.6-27.6-3.7-5.2-13-4.2-27.6 0-14.7 4.1-32 9.9-39.5 13.2q-0.3 0.2-0.6 0.3c-13.7-0.1-43.9-0.2-63.4 0-22.1 0.2-63-0.9-74.5-1.3 0.4-1.3 0.7-2.5 1.1-3.2 1.2-2.4 6.9-7.3 8.5-12.1 8-2.9 31-12.3 34.7-14.1 4-1.9 13.8-10.2 20.5-17.2 6.7-7 29.2-33.3 40.7-42.1 11.5-8.8 14.1-9.5 19.8-10.4 5.8-0.9 72.7-11 98.8-12.6 26.2-1.5 85.3 0 103.3 0 18.1 0.1 56.3 7.1 64.5 11.1 8.2 3.9 9.7 9.4 13.1 17 3.4 7.6 14.2 32 16.2 52.1 2.1 20.1 2.9 44.1 2.9 47.4 0 3.3 0.8 8.6 0 13.8zm-175.2-76.3c3.7-6.2 18.7-35.2 28.9-49.6q-4-0.4-8.4-0.6c-28.7-1.8-68.1 0.2-85.4 0.6-19.1 0.5-58.8 2-70 6.2-11.2 4.3-56.4 57.4-56.4 57.4l-9.6 3.7h15.9c0 0 29 0.1 51.5 0 22.4-0.2 82.7 0.1 89.8 0 7-0.2 29.3-2.4 34.2-3.7 5-1.3 5.9-7.8 9.5-14zm77.5 7.1c0-1.7-0.8-25.7-1.6-34.8-0.9-9.1-1.7-23.2-14.1-21.5q-1.9 0.3-3.7 0.7-2.5 0.7-4.8 1.6-0.6 0.2-1.2 0.4-0.6 0.3-1.1 0.5-0.5 0.2-0.9 0.4-1 0.5-1.9 1-0.3 0.2-0.7 0.4-1.1 0.6-2.2 1.3-0.1 0.1-0.3 0.2-0.5 0.3-0.9 0.6-0.6 0.4-1.2 0.8-0.6 0.5-1.2 1-0.5 0.4-0.9 0.8-0.6 0.4-1.2 0.9-0.4 0.4-0.9 0.8-1 1-1.9 1.9-0.4 0.5-0.8 0.9-1.8 1.9-3.2 3.8-0.4 0.4-0.7 0.9c-2.1 2.8-3.8 5.4-5.1 7.6-2.1 3.4-6.3 12.6-10.6 22-1.1 2.6-2.3 5.2-3.4 7.7q-0.5 1.1-0.9 2.1c-4.2 9.4-7.4 17-7.4 17-3.3 13.9 9.6 9.2 12.8 8.4q0.1 0 0.1 0 0.2 0 0.6-0.1 0.2-0.1 0.3-0.1 0.3-0.1 0.6-0.1 0.1 0 0.3-0.1 0.2 0 0.5-0.1 0.8-0.2 1.9-0.4 0.3-0.1 0.7-0.1 1.5-0.3 3.4-0.7 1.6-0.3 3.3-0.7 0.4-0.1 0.7-0.1 0.7-0.2 1.4-0.3 2.2-0.5 4.6-1 0.9-0.2 1.8-0.3c4.3-0.9 8.7-1.8 12.9-2.7q0.5-0.1 1.1-0.2 0.6-0.2 1.3-0.3 1.3-0.3 2.6-0.6 1.3-0.3 2.5-0.5c2.3-0.5 4.4-1 6-1.4q0.5-0.1 1-0.2 0.5-0.1 0.9-0.3 0.4-0.1 0.7-0.3 1.4-0.5 2.6-1.4 0.3-0.2 0.6-0.4 0.2-0.2 0.5-0.4 0 0 0.1-0.1 0.2-0.1 0.4-0.3 0-0.1 0-0.1 0.3-0.2 0.5-0.5 0.2-0.1 0.3-0.3 0.5-0.5 0.9-1 0.2-0.3 0.5-0.7 0.3-0.3 0.5-0.7 0.8-1.2 1.4-2.5 0.2-0.4 0.3-0.7 0.3-0.5 0.5-1 0-0.2 0.1-0.4 0.1-0.3 0.2-0.6 0.1-0.3 0.2-0.5 0.1-0.4 0.2-0.7 0.1-0.3 0.2-0.5 0.2-0.5 0.3-1 0.1-0.5 0.2-0.9c0.2-1 0.3-1.8 0.3-2.1zm88.2 8.2c-2.6-21.6-7.2-31-10.4-39.7-3.3-9.1-14.9-18.2-22.3-20.7-1.9-0.6-5.8-1.3-10.7-1.9-11.3-1.6-27.7-3-34.7-3.6-1.6-0.1-2.8 1.3-2.4 2.9 4.2 14 9.9 53.7 11.7 66 0.3 2.1 2.1 3.6 4.2 3.5 10.8-0.4 42.5-1.6 61.6-2.9 1.9-0.1 3.2-1.8 3-3.6z"/>
				<path class="s0" d="m1169.8 470.6c-19.2 1.3-50.9 2.5-61.7 2.9-2.1 0.1-3.9-1.4-4.2-3.5-1.8-12.3-7.5-52-11.7-66-0.4-1.6 0.8-3 2.4-2.9 7 0.6 23.4 2 34.7 3.6 4.9 0.6 8.8 1.3 10.7 1.9 7.4 2.5 19 11.6 22.3 20.7 3.2 8.7 7.8 18.1 10.4 39.7 0.3 1.8-1.1 3.5-2.9 3.6z"/>
				<path class="s2" d="m1182.6 559.6c-0.4 2.6-7 10.1-7 10.1 0 0 0.1-1.9 0.3-4.7 0.4-6.8 1.1-19.1 0.5-22.6q-0.2-1-0.4-2.4c1.6-1 4.2-2.8 6.1-4.1 0.2 1.5 0.5 2.5 0.5 2.5 0 0 0.4 18.6 0 21.2z"/>
				<path class="s2" d="m1031.3 554.2l-7.5 1.1c-0.4-1.8-1-3.7-1.7-5.7l8.8-1.5q0.2 3.1 0.4 6.1z"/>
				<path class="s7" d="m1145.9 563.4c-1.4 7.7-2.9 15.4-3.7 19.1-0.2 1.1-0.4 1.9-0.5 2.1-0.9 1.7-24.1 5.8-24.1 5.8l-98.5 15.7c0 0 5.8-4.1 5.8-7.4 0-3.3 1.7-28.2 0.8-34.8-0.2-1.7-0.8-4.8-1.8-8.6l7.4-1.1c1 13 1.9 24.9 1.9 27.1 0 4.1-0.1 12.1 3.3 11.6 10.8-1.7 83-14.5 100.8-17.6 2.2-0.4 4.1-1.8 5-3.9z"/>
				<path class="s7" d="m861.5 544.7c-10.3 4-10.4 10.9-10.4 10.9v17c-29.6 0-81-1.9-100.6-2.6 0 0-1.2-19.9 0-22.1 0.6-1.1 1.8-2.8 2.7-4.1 15.9 1.2 41.5 2.7 51.6 2.7 8.7 0 35.6-1.1 56.7-1.8z"/>
				<path class="s7" d="m861.5 544.7c-10.3 4-10.4 10.9-10.4 10.9v17c-29.6 0-81-1.9-100.6-2.6 0 0-1.2-19.9 0-22.1 0.6-1.1 1.8-2.8 2.7-4.1 15.9 1.2 41.5 2.7 51.6 2.7 8.7 0 35.6-1.1 56.7-1.8z"/>
				<path class="s26" d="m861.5 544.7c-10.3 4-10.4 10.9-10.4 10.9v17c-29.6 0-81-1.9-100.6-2.6 0 0-1.2-19.9 0-22.1 0.6-1.1 1.8-2.8 2.7-4.1 15.9 1.2 41.5 2.7 51.6 2.7 8.7 0 35.6-1.1 56.7-1.8z"/>
				<path fill-rule="evenodd" class="s7" d="m962.8 595.4c-0.8 4.1 1.7 6.7-5.7 7.1-5.3 0.2-27.4 1.1-47.3 2.2h-0.1c-8.4 0.4-16.4 0.9-22.7 1.4-21 1.7-99.4-2-109.5-1.8-10 0.2-36.5 0.2-41.5-0.6q0-0.1 0-0.1c-5-0.9-9.8-17.3-11.5-21.9-1.7-4.5 0.8-16.2 0.8-16.2l5.2-1.4-5.2-2.2c0 0 1.3-14.7 1.9-21.6 3.3 0.9 8.5 1.9 15.1 2.6q0.1 0 0.2 0c2.4 0.3 6.2 0.6 10.8 1-1 1.2-2.2 2.9-2.8 4-1.2 2.3 0 22.1 0 22.1-5-0.2-7.9-0.3-7.9-0.3-2.5 16.6 9.1 22.4 15.8 24 6.6 1.7 24 1.7 43 2.5 19 0.8 53 0 57.1-3.3 4.2-3.3 9.9-12.4 9.9-20.7-3.7 0.3-9.8 0.4-17.3 0.4v-17c0 0 0.1-6.9 10.4-10.9 3.4-0.1 6.7-0.2 9.7-0.3 6.4-0.2 11.6-0.4 14.6-0.4 13.3 0 65-5 65-5 0 0-1.8 8 1.8 9 3.1 0.8 18 0.8 26.7 0.3-3.4 7-15.7 43-16.5 47.1zm-19.8-5c0 0-7.2-19.9-10.3-20.7-3-0.8-3.8-2.5-8.8-2.5-5 0-26.8-2.5-29.9 0-3.2 2.5-9.7 7.8-9.4 15.9 0.4 8.1 11.2 10.6 18.6 10.6 7.5 0 29.8-5 39.8-3.3z"/>
				<path fill-rule="evenodd" class="s7" d="m962.8 595.4c-0.8 4.1 1.7 6.7-5.7 7.1-5.3 0.2-27.4 1.1-47.3 2.2h-0.1c-8.4 0.4-16.4 0.9-22.7 1.4-21 1.7-99.4-2-109.5-1.8-10 0.2-36.5 0.2-41.5-0.6q0-0.1 0-0.1c-5-0.9-9.8-17.3-11.5-21.9-1.7-4.5 0.8-16.2 0.8-16.2l5.2-1.4-5.2-2.2c0 0 1.3-14.7 1.9-21.6 3.3 0.9 8.5 1.9 15.1 2.6q0.1 0 0.2 0c2.4 0.3 6.2 0.6 10.8 1-1 1.2-2.2 2.9-2.8 4-1.2 2.3 0 22.1 0 22.1-5-0.2-7.9-0.3-7.9-0.3-2.5 16.6 9.1 22.4 15.8 24 6.6 1.7 24 1.7 43 2.5 19 0.8 53 0 57.1-3.3 4.2-3.3 9.9-12.4 9.9-20.7-3.7 0.3-9.8 0.4-17.3 0.4v-17c0 0 0.1-6.9 10.4-10.9 3.4-0.1 6.7-0.2 9.7-0.3 6.4-0.2 11.6-0.4 14.6-0.4 13.3 0 65-5 65-5 0 0-1.8 8 1.8 9 3.1 0.8 18 0.8 26.7 0.3-3.4 7-15.7 43-16.5 47.1zm-19.8-5c0 0-7.2-19.9-10.3-20.7-3-0.8-3.8-2.5-8.8-2.5-5 0-26.8-2.5-29.9 0-3.2 2.5-9.7 7.8-9.4 15.9 0.4 8.1 11.2 10.6 18.6 10.6 7.5 0 29.8-5 39.8-3.3z"/>
				<path fill-rule="evenodd" class="s25" d="m962.8 595.4c-0.8 4.1 1.7 6.7-5.7 7.1-5.3 0.2-27.4 1.1-47.3 2.2h-0.1c-8.4 0.4-16.4 0.9-22.7 1.4-21 1.7-99.4-2-109.5-1.8-10 0.2-36.5 0.2-41.5-0.6q0-0.1 0-0.1c-5-0.9-9.8-17.3-11.5-21.9-1.7-4.5 0.8-16.2 0.8-16.2l5.2-1.4-5.2-2.2c0 0 1.3-14.7 1.9-21.6 3.3 0.9 8.5 1.9 15.1 2.6q0.1 0 0.2 0c2.4 0.3 6.2 0.6 10.8 1-1 1.2-2.2 2.9-2.8 4-1.2 2.3 0 22.1 0 22.1-5-0.2-7.9-0.3-7.9-0.3-2.5 16.6 9.1 22.4 15.8 24 6.6 1.7 24 1.7 43 2.5 19 0.8 53 0 57.1-3.3 4.2-3.3 9.9-12.4 9.9-20.7-3.7 0.3-9.8 0.4-17.3 0.4v-17c0 0 0.1-6.9 10.4-10.9 3.4-0.1 6.7-0.2 9.7-0.3 6.4-0.2 11.6-0.4 14.6-0.4 13.3 0 65-5 65-5 0 0-1.8 8 1.8 9 3.1 0.8 18 0.8 26.7 0.3-3.4 7-15.7 43-16.5 47.1zm-19.8-5c0 0-7.2-19.9-10.3-20.7-3-0.8-3.8-2.5-8.8-2.5-5 0-26.8-2.5-29.9 0-3.2 2.5-9.7 7.8-9.4 15.9 0.4 8.1 11.2 10.6 18.6 10.6 7.5 0 29.8-5 39.8-3.3z"/>
				<path class="s28" d="m767.7 483c-1.6 4.9-7.3 9.7-8.5 12.1-0.4 0.7-0.8 1.9-1.2 3.2-1.3 4.5-2.7 11.2-4.7 14.5-2.5 4.4-4.1 5.6-6.4 5.5-2.4-0.2-11-1.6-11-1.6 0 0 0.7-3.1 1.6-6.9 1.6 1.4 4.2 3 6.8 1.9 4.1-1.6 6.9-11.1 8-15.5 0.9-3.6 5.1-7.1 6.5-9.6 3-1.4 5.8-2.6 7.8-3.2q0.5-0.2 1.1-0.4z"/>
				<path class="s7" d="m957 513.7l-6.2 25.3c0 0-51.7 5-65 5-3 0-8.2 0.2-14.6 0.4l0.9-8.9c0.3-2.5-1.7-4.7-4.3-4.7l-42.5 0.1q-1.8 0-3.5 0.4c-3.8 0.9-12.6 2.9-17 3.2-4.7 0.3-17.2-2.6-21.4-3.6q-1.4-0.3-2.9-0.4l-30.1-1.5c-2.2-0.2-4.1 1.2-4.7 3.2l-3.2 10.7q-0.1 0-0.2 0c-6.7-0.7-11.9-1.8-15.2-2.7 0.6-6.9 4.3-20.9 5.8-23.5 1.4-2.4 2.9-0.2 3 0 0 0 8.6 1.4 10.9 1.6 2.4 0.1 4-1.1 6.5-5.5 1.9-3.3 3.4-10 4.7-14.5 11.6 0.4 52.4 1.5 74.5 1.3 19.6-0.2 49.8-0.1 63.5 0-7.2 3.3-12.7 8-14.3 9.7-1.7 1.6-2.7 8 4.4 9 7.2 0.9 65.2-1.8 70.9-4.6z"/>
				<path fill-rule="evenodd" class="s31" d="m1035.9 402.1c-10.2 14.4-25.2 43.4-28.9 49.6-3.6 6.2-4.5 12.7-9.4 14-5 1.3-27.3 3.5-34.3 3.7-7.1 0.1-67.4-0.2-89.8 0-22.4 0.1-51.5 0-51.5 0h-15.9l9.6-3.7c0 0 45.3-53.1 56.4-57.4 11.2-4.2 50.9-5.7 70-6.2 17.3-0.4 56.7-2.4 85.4-0.6q4.4 0.2 8.4 0.6zm-8.6 6.2c0.7-2.4 2.6-3.4-1.8-4.4-4.4-1.1-48.6-0.3-88 1.3-55 2.2-60.4 4.4-60.4 4.4-7.1 0.5-48.3 47.8-50.1 50.8-1.7 3.1-2.2 4.7 0.9 5 3 0.3 59 0.8 73.6 0.8 25.7 0 80.4-1.6 87.8-2.5 7.5-0.8 7.5-2.5 9.1-4.4 1.7-1.9 28.2-48.6 28.9-51z"/>
				<path class="s0" d="m1027.3 408.4c-0.7 2.3-27.2 49-28.9 50.9-1.6 1.9-1.6 3.6-9.1 4.4-7.4 0.9-62.1 2.5-87.8 2.5-14.6 0-70.6-0.5-73.6-0.8-3.1-0.3-2.6-1.9-0.9-5 1.8-3 43-50.2 50.1-50.8 0 0 5.4-2.2 60.4-4.4 39.4-1.6 83.6-2.4 88-1.3 4.4 1.1 2.6 2.1 1.8 4.5z"/>
				<path class="s2" d="m868.4 572.2c0 8.3-5.8 17.4-9.9 20.7-4.1 3.3-38.1 4.1-57.1 3.3-19-0.8-36.4-0.8-43.1-2.5-6.6-1.7-18.2-7.4-15.7-24 0 0 2.9 0.1 7.9 0.3 19.6 0.7 71.1 2.6 100.6 2.6 7.5 0 13.6-0.1 17.3-0.4z"/>
				<path fill-rule="evenodd" class="s28" d="m942.9 590.4c-9.9-1.7-32.3 3.3-39.7 3.3-7.5 0-18.2-2.5-18.6-10.6-0.4-8.1 6.2-13.4 9.3-15.9 3.2-2.5 25 0 30 0 5 0 5.8 1.7 8.8 2.5 3.1 0.8 10.3 20.7 10.2 20.7zm-27.3-10.8c0-4.1-3.3-7.4-7.4-7.4-4.1 0-7.5 3.3-7.5 7.4 0 4.1 3.4 7.5 7.5 7.5 4.1 0 7.4-3.4 7.4-7.5z"/>
				<path class="s32" d="m908.2 587.1c-4.1 0-7.5-3.4-7.5-7.5 0-4.1 3.4-7.4 7.5-7.4 4.1 0 7.4 3.3 7.4 7.4 0 4.1-3.3 7.5-7.4 7.5z"/>
				<path class="s2" d="m872.1 535.5l-0.9 8.9c-3 0.1-6.3 0.2-9.7 0.3-21.1 0.7-48 1.8-56.7 1.8-10.1 0-35.7-1.4-51.6-2.6-4.5-0.4-8.3-0.7-10.7-1l3.2-10.7c0.7-2 2.6-3.3 4.7-3.2l30.1 1.5q1.5 0.1 2.9 0.4c4.3 1 16.7 3.9 21.4 3.6 4.4-0.3 13.3-2.3 17-3.2q1.8-0.4 3.6-0.4l42.5-0.1c2.5 0 4.5 2.2 4.2 4.7z"/>
				<path fill-rule="evenodd" class="s28" d="m957 513.8c-5.7 2.8-63.7 5.4-70.9 4.5-7.1-1-6.1-7.4-4.4-9 1.6-1.6 7.1-6.4 14.3-9.7q0.3-0.1 0.6-0.3c7.4-3.3 24.8-9.1 39.4-13.2 14.7-4.2 24-5.1 27.6 0 4.2 5.8 0 18.2-6.6 27.7zm-27.3-20.3c-5.8 0.9-13.2 2.5-23.7 6.1-10.5 3.7-13.5 8.8-13.5 8.8-3.4 7.5 4.1 7.5 8.2 7.4 4.2 0 30.5-2.1 30.5-2.1 0 0 4.3-8.6 6.1-13.2 1.7-4.6-1.8-7.8-7.6-7zm27.3 9.1c0 0-15.7 1.7-16.2 1.6l-3.1 9.5c0 0 14.4-1.1 16.2-3.6 1.9-2.4 3.1-7.5 3.1-7.5zm3.4-12c-0.9-4.5-4.1-5-9.5-3.9-5.5 1-13.2 3.9-13.2 3.9 0 0 6.6 4.5 3.5 9.9l17.4-2.3c0 0 2.7-3 1.8-7.6z"/>
				<path class="s7" d="m937.3 500.5c-1.8 4.6-6.1 13.2-6.1 13.2 0 0-26.3 2.1-30.5 2.1-4.1 0.1-11.6 0.1-8.2-7.4 0 0 3-5.1 13.5-8.8 10.5-3.6 17.9-5.2 23.7-6.1 5.8-0.8 9.3 2.4 7.6 7z"/>
				<path class="s26" d="m937.3 500.5c-1.8 4.6-6.1 13.2-6.1 13.2 0 0-26.3 2.1-30.5 2.1-4.1 0.1-11.6 0.1-8.2-7.4 0 0 3-5.1 13.5-8.8 10.5-3.6 17.9-5.2 23.7-6.1 5.8-0.8 9.3 2.4 7.6 7z"/>
				<path class="s7" d="m957 502.6c0 0-1.2 5.1-3.1 7.5-1.8 2.5-16.2 3.6-16.2 3.6l3.1-9.5c0.5 0.1 16.2-1.6 16.2-1.6z"/>
				<path class="s26" d="m957 502.6c0 0-1.2 5.1-3.1 7.5-1.8 2.5-16.2 3.6-16.2 3.6l3.1-9.5c0.5 0.1 16.2-1.6 16.2-1.6z"/>
				<path class="s7" d="m958.6 498.2l-17.4 2.3c3.1-5.4-3.5-9.9-3.5-9.9 0 0 7.7-2.9 13.2-3.9 5.4-1.1 8.6-0.6 9.5 3.9 0.9 4.6-1.8 7.6-1.8 7.6z"/>
				<path class="s26" d="m958.6 498.2l-17.4 2.3c3.1-5.4-3.5-9.9-3.5-9.9 0 0 7.7-2.9 13.2-3.9 5.4-1.1 8.6-0.6 9.5 3.9 0.9 4.6-1.8 7.6-1.8 7.6z"/>
				<path class="s2" d="m1084.5 458.8c0 1.6-2.5 14.9-12.4 17.3-9.9 2.5-44.5 9.4-47.5 10.1q0 0-0.1 0c-3.2 0.8-16.1 5.5-12.8-8.4 0 0 3.2-7.6 7.3-17 1.4-3.1 2.9-6.5 4.4-9.8l4 20.9c0 0 30 2.4 37.3 0 7.4-2.4 14.2-7.3 14.9-9.8 0.8-2.5 1-13.9 0-23.1-0.9-9.2-1.2-26-3.1-30.9-1.9-4.8-7.8-5.7-11.5-4.9q1.8-0.4 3.8-0.7c12.4-1.7 13.2 12.4 14 21.5 0.9 9.1 1.7 33.1 1.7 34.8z"/>
				<path class="s7" d="m758.8 486.6c-1.4 2.5-5.6 6-6.5 9.6-1.1 4.4-3.9 13.9-8 15.5-2.6 1.1-5.2-0.5-6.8-1.9 1.2-4.9 2.9-11.1 4.3-13 1.7-2.3 9.9-6.9 17-10.2z"/>
				<path class="s26" d="m758.8 486.6c-1.4 2.5-5.6 6-6.5 9.6-1.1 4.4-3.9 13.9-8 15.5-2.6 1.1-5.2-0.5-6.8-1.9 1.2-4.9 2.9-11.1 4.3-13 1.7-2.3 9.9-6.9 17-10.2z"/>
				<path class="s2" d="m909.7 604.7c-0.8 2-1.8 4.4-2.8 6.5-1.3 3-2.7 5.6-3.7 6-2.5 1.1-57.1-2-74.1-3-17.1-1.1-87.3-4.8-90.6-5.6-1.8-0.5-2.4-2.9-2.6-5q0.1 0 0.1 0c4.9 0.9 31.4 0.9 41.5 0.7 10.1-0.3 88.5 3.5 109.5 1.8 6.3-0.5 14.3-1 22.7-1.4z"/>
				<path class="s0" d="m1079.7 462.1c-0.8 2.4-7.6 7.4-14.9 9.8-7.4 2.4-37.4 0-37.4 0l-4-20.9c4.3-9.5 8.5-18.6 10.6-22.1 4.7-7.7 13.7-21.2 31.1-25.7 3.7-0.8 9.5 0.1 11.4 4.9 1.9 4.9 2.2 21.7 3.2 30.9 0.9 9.2 0.7 20.6 0 23.1z"/>
			</g>
			<g>
				<path class="s2" d="m1044.4 546.6c0.5-1 1.4-1.8 2.5-2 7.1-1.3 40-7.5 52.5-9.7 12.2-2.1 30.8-5.2 40-5.8 2-0.2 3.7 1.5 3.5 3.4-0.3 5.3-1.5 11.7-2.3 15.4-0.3 1.6-1.7 2.9-3.4 3.2-14.1 2.4-77.8 13-95.1 15.6-1.5 0.3-2.8-1.1-2.5-2.6 1.4-6.8 3.2-14.2 4.8-17.5z"/>
				<path fill-rule="evenodd" class="s27" d="m1082.9 390.9c0 0 0.8 2.8 1.6 6.8 0.8 3.9 8.3 39.5 9.9 52 1.7 12.4 5 50.5 5 57.1 0 6.6 0 28.1 0 28.1 0 0 3.3 6.6 3.3 12.4 0 5.8-1.3 8.2-2.3 9.9-1 1.7 0.4 14.9-1.9 24.9"/>
				<path fill-rule="evenodd" class="s27" d="m1020.8 462.1c0 0-1.7-7.7 0-17.1 1.6-9.4 14.9-32.6 20.7-38.4 5.8-5.8 16.5-16.6 39.7-15.7 23.2 0.8 34.8 1.5 38.9 3.3 7.5 3.3 9.1 9.1 10 10.7"/>
				<path class="s2" d="m965.3 525.1c4.2-14.8 15.8-31.4 32.7-31.3 6.3-0.1 13 1 18.2 5.2 5 3.8 7.2 10.7 6.8 16.8-1.5-5.6-4-10.9-9-13.9-4.6-2.9-10.5-3.5-15.9-3.2-14.8 0.2-25.3 14.9-32.8 26.4z"/>
				<path fill-rule="evenodd" class="s27" d="m1087.4 503.5c-2 0-3.7-3.4-3.7-7.5 0-4.1 1.7-7.4 3.7-7.4 2.1 0 3.8 3.3 3.8 7.4 0 4.1-1.7 7.5-3.8 7.5z"/>
				<path fill-rule="evenodd" class="s27" d="m1110.6 498.5c-2.1 0-3.7-3.3-3.7-7.4 0-4.2 1.6-7.5 3.7-7.5 2.1 0 3.7 3.3 3.7 7.5 0 4.1-1.6 7.4-3.7 7.4z"/>
				<path class="s2" d="m1081.6 498.4l11.6 0.4c1.3 0 2.3-0.8 2.3-1.8l-0.2-2.7c0-1-1.2-1.8-2.5-1.5l-11.4 2c-1 0.2-1.8 0.9-1.7 1.7v0.4c0 0.8 0.9 1.5 1.9 1.5z"/>
				<path class="s2" d="m1117.8 493.4l-11.5 2c-1.2 0.2-2.3-0.4-2.4-1.4l-0.3-2.7c-0.1-1 1-1.9 2.3-1.8l11.6 0.3c1 0 1.8 0.6 1.9 1.4v0.4c0.1 0.8-0.6 1.6-1.6 1.8z"/>
				<g>
					<path class="s2" d="m1036.3 473.3l-1.9-45.6 3.3-5 2 50.4z"/>
				</g>
				<path class="s2" d="m1025.1 473c2.3-1 3.1-6.4 8.1-6.2 5 0.2 12.6 0 12.6 0 0 0 1.4-13 7.2-15.1 5.9-2 14.1-2.3 15.4-1.8 1.2 0.6 6.3-0.2 6.7 5.6 0.3 5.7 0.8 19.8 0.3 23.1-0.4 3.4-46.3 3.3-48 2.1-1.7-1.2-2.3-7.7-2.3-7.7z"/>
				<path class="s7" d="m1075.4 476.1c-0.5 3.4-46.3 3.3-48 2.1-1-0.8-1.7-3.4-2-5.4q-0.2 0.1-0.3 0.2c0 0 0.6 6.5 2.3 7.7 1.6 1.2 47.5 1.3 48-2.1 0.2-1.2 0.2-3.6 0.2-6.6 0 1.8-0.1 3.3-0.2 4.1z"/>
				<path fill-rule="evenodd" class="s33" d="m1056.4 386.7c0 0-22.4 1.6-29 14.9"/>
				<path fill-rule="evenodd" class="s27" d="m1030.9 548.1c-0.8-10.1-1.5-20-1.9-25.6-0.6-11.3-3.4-29.5-4.5-36.3-0.3-1.7-0.4-2.6-0.4-2.6"/>
			</g>
			<path class="s10" d="m1054.6 454.6q0 0 0.1 0c1.6-0.2 14-1.4 16.7 0 0 0 2.7 4 2.2 9.9v1.1l-2.8 0.4c0 0 4-12.5-16.2-11.4z"/>
		</g>
		<g>
			<path class="s1" d="m1062.5 636.1c0 0-18.3 24.1 23.2 25 41.5 0.9 108.5 13.9 159 4.5 50.5-9.4 151.5-21.8 163.9-31.7 12.5-10 59.4-24.5 21.5-27.2-38-2.6 53.2-42.4-13.9-38.2-67.2 4.1-353.7 67.6-353.7 67.6z"/>
			<path class="s34" d="m1296.4 656.5c0 0-11.3 0.9-22.5-2.7 0 0-30.3-3.9-30.7-42.9l11.2-27.1 18.4-0.4z"/>
			<path class="s2" d="m1044.5 620.1c-0.3 2.7 8.1 9.3 9.8 10.6 4.8 4 10.2 6.9 16.4 8.4 17.6 4.3 37.8-3 49.3-16.9l2-13.6-75.4-2.7c0-0.1-2.1 14.2-2.1 14.2z"/>
			<path class="s35" d="m1425.6 596.9c0 0-68.7 14.1-91 19.6l-74.8 13.5-80.7 2.6-12.2-4.7-0.7-0.8-65-1.4-46.2-4.9c0 0-2.7 0.2-2.6 3.7l-17.3-2.7-5.8-6.4c0 0-2.5-3.8-3-5.5l-0.4-2.5 0.5-1.7 0.4-2.9 1-1-2.4-15.7-0.2-5.2 0.7-1.2 4.5-17.7 5.4-6.2c0 0 2.9-13.5 7.7-18.9 0 0 4.9-5.1 10-7.1l27.1-8.9 61.9-14.6 1.2-0.8c0 0 46.8-35.7 65.4-42.8 0 0 8.3-4.1 30.5-6.3 0 0 63.7-6.6 106.5-4.4 0 0 7.5-1.4 18 0.5 0 0 16.7 1.2 39.8 20.2 0 0 12.4 11.9 15.3 15.3l11 12c0 0 6.1 6.8 10 9.2 0 0 4.3 3.2 7 6.6 0 0 2 4.3 2.6 6.8l1 2.9c0 0 3.5 11.1 4 18.7v19.5l0.2 2.2c0 0-0.5 5.3-1.3 7 0 0-0.7 4.1-2.1 5.4z"/>
			<path class="s36" d="m1267 532c0 0-2.2 17.3-8.7 25.6 0 0-4.8 7.3-15.1 8.5 0 0-43.3 5.5-70 8.4 0 0-14.8 1.8-64 1.6 0 0 48.9-0.8 61.8-4.1 0 0 5.2-0.6 8-4.7 0 0 9.2-17.5 16-24.1 0 0 3.5-2.6 6.8-3.6 0 0 39.1-12.8 56-10.7 7.9 2.1 9.2 3.1 9.2 3.1z"/>
			<path class="s10" d="m1267 532c0 0-7.2-3.4-13.1-3.3 0 0-29.7 1.4-57.6 13.3 0 0-2.4 1.5-4.1 4.2 0 0-11.1 16-12.7 19 0 0-1.7 2.6 0.9 2.8 0 0 58.9-6.6 63.1-7.7 0 0 8.9-2.3 12.4-6.9 0 0 5.1-5.8 11.1-21.4z"/>
			<path class="s2" d="m1263.2 622.4c0 0 2.2-8.6 3.3-12.3 0 0 10.4-50.2 30.5-62.3 22.1 1.5 39.6 25.3 39.6 54.4 0 30-18.7 54.4-41.8 54.4-15.1 0-28.4-10.5-35.7-26.3h0.2z"/>
			<path class="s31" d="m1442.9 621.1c0 0 10.2-3.5 8.4-41.1 0 0-0.6-27.6-10.7-30.9 0 0-4.1-1.9-8.2 8.3 0 0-6.6 23.8-6.8 30.8 0 0-0.8 6.8-0.3 8.6l-16.7 3.1c0 0 0.7 20.4 8.2 23.6 0 0 20.2 1.4 26.1-2.4z"/>
			<path class="s2" d="m1102.9 572.6c0 0 50.8-2.7 56.9-3.3 0 0 9.3-0.6 13.2-5.7l9-12.2c0 0 3.1-3.7-2.8-4.4 0 0-76.1-4.8-115.7 0.7 0 0-3.7 1.3-4 4.7l0.4 11.3c0 0-0.5 2.1 3.3 3.3 0 0 10 2.9 39.7 5.6z"/>
			<path fill-rule="evenodd" class="s37" d="m1274.4 582.8c0 0-19.3 2.5-26.5 2.8 0 0-8.1 1.2-19.6 1.5 0 0-69.5 2.5-85.8 1 0 0-71.1 0-98.1-4.3 0 0-16.3-2.5-18.3-4.1"/>
			<path class="s31" d="m1319.9 558.7c0 0-11.2-11.3-23.6-10.3 0-0.1 12.9-10.2 23.6 10.3z"/>
			<path class="s38" d="m1450.9 573.5c0 0 2.5-19-5.5-27.1 0 0-6.1-5.4-11.6 8.1 0 0 2.2-5.5 6.8-5.1 0 0 7-0.5 10.3 24.1z"/>
			<path fill-rule="evenodd" class="s39" d="m1427.3 578.3l-1.7 9.9-89 17.1v-6.9l88.7-19.4c0 0 0.2-0.8 2-0.7z"/>
			<path class="s40" d="m1424.8 576.7c0 0-1.7-1.9-1.6-10.6 0 0-61.4 22.5-92.1 8.1 0 0 5.7 13 5.5 24.2l88.9-19.6c0 0-0.3-1-0.7-2.1z"/>
			<path class="s41" d="m1334.4 514.8l-7 1.5c0 0-51.1 11.8-60.4 15.7l-0.3 0.6c0 0 27.6-8.6 60.7-15.7l7.5-1.7z"/>
			<path class="s41" d="m1327.4 516.2c0 0-0.4-10.3-2.3-12.7l-0.4-0.1c0 0 1.8 3.4 2.1 12.9z"/>
			<path class="s41" d="m1334.9 515.1c0 0 5.3 12.4 6.7 26.1 0 0 1 14.7 0.8 22.9 0 0-1 14.8-1.3 20.1 0 0-0.1 9.5 0.3 11.4v1.4c0 0 0.4 4.3-0.6 7.6l-0.3 0.1c0 0 1.4-3.4 0.6-7.4 0 0-0.6-12.7 0.1-19.6l0.7-13.3-0.1-13-0.5-8.7-0.9-7-1.1-4.8-1.5-6-1.7-5.7-1.6-3.9z"/>
			<path class="s41" d="m1393.9 510.8c0 0 6.5 11.1 6.9 18.1l-0.2 3c0 0 2.1 17.5-0.5 29.1 0 0-2.6 9.9-1.1 21.7 0 0-2.1-8.7 0.6-21.2 0 0 2.8-10.3 0.6-29.4l0.3-2.9c0 0 0-5.8-6.6-18.4z"/>
			<path class="s42" d="m1230.8 567.8c4-0.6 5.9-0.7 10.2-1.4l-11.2 1.8c0 0-3.6 1.3-5.8 2.8 0 0-9.3 5.5-15.1 6.6 0 0-16.2 4.3-26.9 5.5 0 0-20.9 4-29.5 4.9l-1.7 0.5c0 0-74.9-0.7-108.4-4.8 0 0-15.3-2.5-16.4-4.1l4.4-17.3c0 0 1.3 7.2 38 14.3l29.1-1.9 11.7 1.4c0 0 36.1 3.9 121.6-8.3z"/>
			<path class="s43" d="m1338.4 457.9c0 0-64.7-3.8-128.2 5.4 0 0-33.9 18.1-63.2 42 0 0 73.2-9.2 173-3.1l4 0.7c0 0 1.1 0.2 6.2-8.8 0 0 5-13.1 5.7-17.3 0 0 4.8-17.3 6.5-18.7z"/>
			<path class="s2" d="m1356.5 451.9c0 0-9.5-1.5-13.6 5.2 0 0-3.7 8.3-4.6 12 0 0-5.9 21.6-9.3 27.5 0 0-3.8 6.3-5 6.3l-4-0.7c0 0 1.7-0.3 5.5-6.8 0 0 6.3-16.4 10-28.7 0.9-2.9 1.3-6 2.8-8.7 1.8-3 4.8-4.5 8.1-5.4 3.2-0.9 6.8-1.2 10.1-0.7z"/>
			<path class="s0" d="m1186.2 491c7.3-5.2 14.6-10.7 22.6-14.8 6.6-3.2 17.1-8.2 24.6-4.9 1 0.4-3.1 4.6-6.5 7.8-0.3 0.3-0.7 1-1.1 1.9q0.2-0.2 0.2-0.2c20.9-11.7 40.8-15.8 40.8-15.8 24.6-6.9 70.7-4.6 70.7-4.6 0 0-9.3 30.3-12.6 36.1-0.4 0.7-3.9 5.8-4.8 5.7-38.7-3.9-123.3-1.5-123.3-1.5-0.9 0-1 0.1-2 0.2-1.4 0.1-22.8 1-22.8 1 4.3-4.1 9.4-7.5 14.2-10.9z"/>
			<path class="s2" d="m1210.2 463.3c0 0-26.8 11.6-63.1 42l4.2-0.7c0 0 25.3-21 58.3-40.6z"/>
			<path class="s40" d="m1324 502.9c0 0-59.8 18.5-68.2 25.7l4.3 0.9 2.2 0.6 2.6 0.8 2.1 1.1c0 0 42.3-11.4 60.4-15.8 0 0 0.2-8.9-3.4-13.3z"/>
			<path class="s42" d="m1293.1 500.9c0 0-83.2 9.2-105.6 12.6 0 0-93.1 13.5-119.3 13.9l-2.3-0.4h-1.6c0 0 28.4-9 65.3-17.3l12.9-3 1.7-1.2c0 0 32.2-8.7 148.9-4.6z"/>
			<path class="s2" d="m1427.2 506.6c0 0-1.9-6.9-6.5-12.6 0 0-10.3-13-15.7-18 0 0-9.7-9.3-16.2-13 0 0-16.8-7.3-30.4-7.3 0 0-8 0-11 6l-4.9 17.6-3 12.6-2.8 13.5-1.7 6.8 3.3-0.6 2-6.4c0 0-1.3 0.7-0.5-2.8l8.7-35.2c0 0 2.3-6.7 8.4-7.6 0 0 16.3-2.9 37.7 9.2 0 0 23.4 18 31.1 37.7z"/>
			<path class="s31" d="m1425.7 506.4l-2.8-0.2c0 0 0.8-2-8.2-15.4 0 0-5.6-7.2-13.4-15.1l-0.7-1.9c0 0 18.5 15.6 25.1 32.6z"/>
			<path class="s2" d="m1427.8 508.4c0 0 0.2-1.7-0.6-1.8 0 0-22.6-2.3-37.3-1.2 0 0-26.5 1.7-40 3.2l-14.8 3.5-0.4 2.4c0 0 38.2-6.3 56.3-7 0 0 32.1-0.2 36.8 0.9z"/>
			<path class="s2" d="m1411.4 505.4c0 0-4.3-16.2-12.5-32.5 0 0-8.1-7.9-25.3-11.8l-0.4-0.9c0 0 15.3 1.8 26.1 11.6 0 0 13.2 28.3 13.1 33.7z"/>
			<path class="s44" d="m1347.1 496.4c0 0-1.2-7.8-3-11.1l-7.2 26.2c0 0 7.9-1.6 12.4-2.8 0 0 28-3 32.9-4.1 0 0 3.6-0.9 3.2-5.6 0 0-2-8-5.1-10.7 0 0-0.1-1-3.1-1.8 0 0-7.9-3-22.5-1.3 0 0-2.4-0.2-5.5 3.9 0 0-2.1 3.9-2.1 7.3z"/>
			<path class="s45" d="m1318.1 557.1c0 0-12.2-8.6-25.2-5.6 0 0 2.4-2.7 4-3.3 0 0 9.8-0.7 21.2 8.9z"/>
			<path class="s23" d="m1266.5 602.1c-1.7 22.7 10.7 42.2 27.8 43.4 17 1.3 32.2-16.1 33.9-38.8 1.7-22.8-10.7-42.2-27.8-43.5-17.1-1.3-32.3 16.1-33.9 38.9z"/>
			<path class="s46" d="m1326 602.5c0 0-9.5 0.3-13.9 1.3 0 0-4.4 0.6-6.3 1 0 0-3.5 0.9-2.2 3.3 0 0 4 4.6 5.4 5.5 0 0 8.7 8.8 11.4 11.8 0 0 5.3-8.9 5.6-22.9z"/>
			<path class="s47" d="m1321.1 580.8c0 0-5.1-10.5-13.4-13.3 0 0-0.4 0.1-0.4 0.6 0 0-2.8 16.7-6.2 25.6 0 0-1.8 3.3 2.3 2.1 0 0 12.8-5.7 17.7-15z"/>
			<path class="s31" d="m1314.8 582.8c0 0-5.1-8.7-8.5-9.6 0 0-1.9 10.8-4.7 18.9 0 0 8.5-1.9 13.4-8.3 0 0 0.5-0.8-0.2-1z"/>
			<path class="s31" d="m1293.8 593.6c0 0 1.4-16.2-3.9-26.3 0 0-11.1 6.6-15 15.3 0 0 13.4 11.1 15.7 13 0 0 3.3 2 3.2-2z"/>
			<path class="s48" d="m1275.6 581.7c0 0 7-9.6 12-9.9 0 0 2.1 3.9 2.1 6.4 0 0-8.9-0.3-13.4 5.5l-1.3-1.1z"/>
			<path class="s31" d="m1273.9 628.5c0 0 11.8-8.3 15.4-20.1 0 0 0.8-2-1.4-2.5 0 0-14-1.8-19.2-0.7 0.1 0-3.9 10.8 5.2 23.3z"/>
			<path class="s31" d="m1306.5 640.7c0 0-0.1-14.5-8.6-25.9 0 0-1.7-2.1-2.4 0.4 0 0-3.9 19.7-7.9 26.5 0 0 7.5 5.4 18.9-1z"/>
			<path class="s49" d="m1306.5 640.7l-4.7-4.6c0 0 0.7-12.5-7.1-16.9l0.8-4c0 0 0-2 2-1 0 0 9.4 12.1 9 26.5z"/>
			<path class="s50" d="m1301.8 636.1c0 0-7.3 2.8-12.2 1.3 0 0-1.9 4-2 4.3-0.2 0.3 8.9 5.2 18.9-1z"/>
			<path class="s48" d="m1283.5 613.9c0 0-3.4-4.5-2.9-8.2l-4.2-0.4c0 0-1.4 7.8 4.5 12.3z"/>
			<path class="s51" d="m1287.2 571.4c0 0 4.3 9.2 3.2 16 0 0-1.5 3.9-4.1 4.6l3.4 3c0 0 3.4 3.2 4.1-0.6 0 0 0.6-8.2 0.2-9.7 0 0-1-13.7-4.1-17.4z"/>
			<path class="s48" d="m1289.3 589.7c0 0-3.3-1.3-5.7 0.1l1 0.8c0 0 2.2-0.9 3.7 0.2 0 0 0.5-0.5 1-1.1z"/>
			<path class="s52" d=""/>
			<path class="s53" d="m1285.1 611.4c0 0-5 9.1-11.3 12.3l0.1 4.8c0 0 9.2-6.1 13.7-16.1z"/>
			<path fill-rule="evenodd" class="s52" d="m1274.3 623.3c0 0-3.8-4.9-5.1-8.9 0 0 0.7 8 4.6 9.3z"/>
			<path fill-rule="evenodd" class="s54" d="m1448.4 585c0 0-5.5 1.6-6.3 2.3 0 0-1.2 0.5 0.6 3 0 0 4.6 7.2 4.7 11 0 0 0.9-8.4 1-16.3z"/>
			<path class="s55" d="m1433.5 586.4c-0.2 15.2 3.3 27.6 7.7 27.6 4.4 0 8.1-12.2 8.3-27.5 0.2-15.2-3.3-27.6-7.7-27.6-4.4-0.1-8.1 12.2-8.3 27.5z"/>
			<path class="s56" d="m1441.3 580.8c0 0 5-3.2 5.9-8.8 0 0 0.2-5.3-3.7-10.3 0 0 1.2 8.9-2.2 19.1z"/>
			<path class="s31" d="m1446.1 570c0 0-1.5 3.6-3.6 6.1 0 0 1.7-9.6 1.2-12.2 0 0 1.6 0.9 2.4 6.1z"/>
			<path class="s57" d="m1448.4 585c0 0 0 9.8-1 14.4l-5.5-10.2c0 0-1-1.2 0.3-2.2z"/>
			<path class="s58" d="m1444 610.1c0 0 1-11.4-3.4-17.5 0 0 1.2 10.6-1.6 18.1 0 0 2.6 4.8 5-0.6z"/>
			<path class="s59" d="m1439 562.2c0 0 2.4 6.9 0.9 14.8q0 0-1 3.1c0 0-1.5-5.1-3.6-7.7 0 0 0.4-5.8 3.7-10.2z"/>
			<path class="s60" d="m1434.9 602.7c0 0 5.5-4.7 3.3-15.2 0 0-3.1-1.1-4.8-0.3 0-0.1 0 10.3 1.5 15.5z"/>
			<path class="s61" d="m1045.8 540.5c0 0-5.5 9.7-9.9 15 0 0-0.7 1.1-0.3 2.1q0.1 0.2 0.2 0.3c0.9 1 2.2 4.4 20.8 7 0 0 1 0.3 0.4-2.6l-1-18c0 0-5.8-1.4-10.2-3.8z"/>
			<path class="s62" d="m1324 563.2c0 0-9.8-28.2-27.8-19.2 0 0-13.7 6-25.3 38.9 0 0-5.8 19-7.7 26.9 0 0-0.7 6.2-6.1 7.4 0 0-43.8 7.7-108.5 7 0 0-35.7 0-48.8-0.4 0 0-36.3-2.5-59.1-8.8 0 0-9-1.9-14.1-4.2 0 0 4.3 9.1 8.5 11.3l17.3 2.4c0 0 0-2.9 2.5-3.7l44.8 5.1 65.6 1.4 14.9 6.4 79.1-3.1 3.9-7.9c0 0 2.2-8.6 3.3-12.3 0 0 12.2-58.6 35.5-64.4 0 0 9-3.1 17.9 12.7z"/>
			<path class="s63" d="m1263.2 622.8c0 0-47 5.6-95.6 5.3l-1.4-0.7c0 0 69.9-0.7 97.3-5.7z"/>
			<path class="s64" d="m1347.3 495.3c0 0-0.5-0.4-0.8-3.3 0 0-0.5-4.7-2.4-6.9l-3.4 12.3c0 0 1.3 3.1 3.2 3.1l3.1 0.4c0 0 0.5-3.6 0.3-5.6z"/>
			<path class="s65" d="m1385.5 499.6c0 0-11.6 1.4-18.4 2 0 0-10.7 1.1-15.2 1.4 0 0-4 0.6-5.1-0.1l-2.2-2.3h2.3c0 0-0.2-4.4 0.7-7.4 0 0 1.1-5.2 4.3-7 0 0 1-1.5 9.9-1.8 0 0 13.5 0 18 3.2 0 0 3.9 2.5 5.7 12z"/>
			<g>
				<path class="s66" d="m1383.8 504q0.2 1.5 0.3 1.9c-7.3 0.5-20.1 1.4-29.7 2.4 8.9-1 26.1-2.9 27-3.4 0 0.1 1.2-0.1 2.4-0.9z"/>
				<path class="s66" d="m1368.2 460.6c5.2 9.1 8.9 18.9 11.4 27-4.6-3.1-17.8-3.1-17.8-3.1-8.9 0.3-9.9 1.8-9.9 1.8-3.2 1.8-4.3 7-4.3 7-0.2 0.6-0.3 1.3-0.4 1.9-0.2-0.3-0.5-1.1-0.7-3 0 0-0.6-4.7-2.4-7l-0.1-0.1 4.4-17.8c0 0 2.3-6.7 8.5-7.6 0 0 4-0.7 10.8 0q0.2 0.3 0.8 1.3-0.3-0.4-0.3-0.4z"/>
				<path class="s66" d="m1392.5 505.8c8.4-0.1 18.9-0.4 18.9-0.4 0 0-4.4-16-12.5-32.3 0 0-8.1-7.8-25-11.8 11 15.8 18.5 43.9 18.5 43.9z"/>
				<path class="s2" d="m1413.1 505.6c0-0.1-3-10.9-12.1-30.7 7.6 7.7 14.3 16 14.3 16 8.4 12.4 8.3 15 8.3 15.4z"/>
			</g>
			<g>
				<g>
					<path class="s67" d="m1368.2 460.4c5.2 9.2 8.9 18.9 11.4 27-4.6-3.1-17.8-3.1-17.8-3.1-8.9 0.3-9.9 1.8-9.9 1.8-3.2 1.8-4.3 7-4.3 7q-0.3 0.9-0.4 1.9c-0.2-0.3-0.5-1.1-0.7-3 0 0-0.6-4.7-2.4-6.9l-0.1-0.2 4.4-17.8c0 0.1 2.3-6.7 8.5-7.6 0 0 4-0.7 10.8 0.1q0.2 0.2 0.8 1.3-0.3-0.5-0.3-0.5z"/>
					<path class="s68" d="m1392.5 505.6c8.4-0.2 18.9-0.2 18.9-0.2 0 0-4.4-16.2-12.5-32.5 0 0-8.1-7.8-25-11.8 11 15.8 18.5 43.9 18.5 43.9z"/>
				</g>
				<g>
					<path class="s0" d="m1368.2 460.4c5.2 9.2 8.9 18.9 11.4 27-4.6-3.1-17.8-3.1-17.8-3.1-8.9 0.3-9.9 1.8-9.9 1.8-3.2 1.8-4.3 7-4.3 7q-0.3 0.9-0.4 1.9c-0.2-0.3-0.5-1.1-0.7-3 0 0-0.6-4.7-2.4-6.9l-0.1-0.2 4.4-17.8c0 0.1 2.3-6.7 8.5-7.6 0 0 4-0.7 10.8 0.1q0.2 0.2 0.8 1.3-0.3-0.5-0.3-0.5z"/>
					<path class="s0" d="m1392.5 505.6c8.4-0.2 18.9-0.2 18.9-0.2 0 0-4.4-16.2-12.5-32.5 0 0-8.1-7.8-25-11.8 11 15.8 18.5 43.9 18.5 43.9z"/>
				</g>
			</g>
			<path class="s2" d="m1339 457.1c0 0-59.1-4-128.8 6.2 0 0 54.6-7.9 128.1-4.7z"/>
			<path class="s69" d="m1292 603.8c0 3.1 2.2 5.7 5 5.7 2.7 0 5-2.6 5-5.7 0-3.2-2.3-5.8-5-5.8-2.8 0-5 2.6-5 5.8z"/>
			<path class="s10" d="m1292.4 603.7c0 3 2.1 5.5 4.7 5.5 2.6 0 4.8-2.5 4.8-5.5 0-3-2.1-5.4-4.8-5.4-2.6 0-4.7 2.4-4.7 5.4z"/>
			<g>
				<path class="s70" d="m1438.8 584.8c0.1 1.6 0.7 2.9 1.4 2.9 0.7 0 1.2-1.4 1.2-3-0.1-1.6-0.7-3-1.4-2.9-0.7 0-1.2 1.3-1.2 3z"/>
				<path class="s10" d="m1438.9 584.7c0.1 1.6 0.6 2.8 1.3 2.8 0.7 0 1.2-1.3 1.1-2.8 0-1.6-0.6-2.8-1.2-2.8-0.7 0-1.2 1.3-1.2 2.8z"/>
			</g>
			<path class="s71" d="m1242.4 546.3c-0.3 2.8 2.6 5.4 5.5 5 3-0.7 5.5-2.9 5.5-5.8-0.4-4.4-6.5-5.9-9.3-2.8-1 1-1.6 2.2-1.7 3.6z"/>
			<path class="s71" d="m1219.6 551c0.4 4.1 4.3 7 8.2 5.9 2.9-0.7 5.8-2.5 6.5-5.7 0.7-3.2-1.1-7.1-4.7-7.9-3.9-0.3-7.4 0.2-9.1 3.3-0.4 0.8-0.8 3.6-0.9 4.4z"/>
			<path class="s71" d="m1206.1 560.1c1.5-0.4 3.4-0.2 4.5-1.3 1.9-2.9 3.9-6.7 1.4-9.8-2.5-3-7.2-4.1-10.9-1.9-4.9 3.4-3.5 11.2 2.8 12.4q1.1 0.5 2.2 0.6z"/>
			<path class="s71" d="m1255.6 548.9c0 0 5.1-3.6 3-10 0 0-1-2.3-4-2-2.1 0.2-4.5 1.5-6.6 2.1-2.5 0.7-5.2 0.9-7.7 1.5 0.4 0.5 1.1 1.6 1.8 1.6 0.6 0.1 1.7-0.6 2.3-0.7 1.3-0.4 2.9-1.1 4.3-1 1.9 0 5 0.8 5.6 3-0.5-1.5-1.2-2.8-2.5-3.7 0.4 0 3.9 0.8 3 1.9 0 0 1.2-1.5 1-3.2 0.1 0 2.9 4.6-0.2 10.5z"/>
			<path class="s10" d="m1052.6 530.1c0 0 1.4 6.8 2.4 8.5 0 0 1.2 3.6 0.8 6.9l1.1 16.9c0 0 0 2.7-1.6 2.5 0 0-19.7-3-19.9-7.8l0.4-1.5c0 0 3-13.6 6.1-17 0 0 3.8-5.5 10.7-8.5z"/>
			<path class="s71" d="m1043.9 552.7c-0.7 4 3.1 6.7 6.4 6.1 1.6-0.5 2.7-1.6 3.8-2.7 1.7-2.7 1.1-6-0.5-8.2-2.2-2.2-6.6-2.2-8.9 0.6-0.6 1.1-0.9 2.6-0.8 4.2z"/>
			<path class="s72" d="m1055.8 545.5c0 0 1.1 10.4-0.1 15 0 0-0.1 2.4-8.5 0.3 0 0-7.5-2.2-7.4-6.1 0 0-5.5 3-4.2 4.3l8 3.6 11.7 2.3c0 0 1.6 0.3 1.6-2.5z"/>
			<path class="s73" d="m1187 595.2l43.6-0.4c0 0 7.4-0.3 12.6 11.8 0 0 0.5 3.1-2.5 3.6 0 0-20.8 3.6-41.3 3.6 0 0-2.2 0.5-2-2.2 0 0 3.5-8.4 3.8-11.1 0 0 2.4-4.9-14.2-5.3z"/>
			<path class="s74" d="m1030.9 599.3c0 0-1.3-4.8-0.8-7.9 0 0 0.2-1.9 1.5-2.4l8.3 1.2c0 0 1.1-0.1 1.7 1.9l3.5 12.5c0 0 0.8 2.7-1.7 2 0 0-11.1-3-12.5-7.3z"/>
			<path class="s2" d="m1176 616.1c0 0-60.3 3.6-73.4 1.3 0 0-34-3.2-46.7-7.2 0 0-1.5-0.3-1.9-2.8 0 0-2.3-12.8-2.3-15.8 0 0 24.4 6 125 4 0 0 2.5 0.7 2.3 4.6z"/>
		</g>
	</g>
	<g id="Folder 1">
		<text id="Dridi" style="transform: matrix(.99,.138,-0.138,.99,427.654,548.461)" >
			<tspan x="0" y="10.5" class="t75">D</tspan><tspan  y="10.5" class="t75">r</tspan><tspan  y="10.5" class="t75">i</tspan><tspan  y="10.5" class="t75">d</tspan><tspan  y="10.5" class="t75">i
</tspan>
		</text>
		<text id="Chaher" style="transform: matrix(1,0,0,1,765,551)" >
			<tspan x="0" y="15.1" class="t76">C</tspan><tspan  y="15.1" class="t76">h</tspan><tspan  y="15.1" class="t76">a</tspan><tspan  y="15.1" class="t76">h</tspan><tspan  y="15.1" class="t76">e</tspan><tspan  y="15.1" class="t76">r</tspan><tspan  y="15.1" class="t76">
</tspan>
		</text>
	</g>
</svg>