<svg xmlns="http://www.w3.org/2000/svg" xmlns:xlink="http://www.w3.org/1999/xlink" id="Layer_1" x="0px" y="0px" viewBox="0 0 1455 549" style="enable-background:new 0 0 1455 549;" xml:space="preserve"><style type="text/css">	.st0{fill:#C6E5E4;}</style><g>	<path class="st0" d="M1219.78,107.79C1219.72,48.23,1171.12-0.05,1111.26,0L108.33,0.9C48.47,0.95-0.05,49.32,0,108.89  c0.05,59.57,48.66,107.85,108.52,107.8l1002.93-0.9C1171.31,215.73,1219.83,167.36,1219.78,107.79z"></path>	<path class="st0" d="M1346.48,332.47L750.14,333c-59.86,0.05-108.38,48.42-108.33,107.99c0.05,59.56,48.67,107.85,108.52,107.8  l596.34-0.53c59.86-0.05,108.38-48.43,108.33-107.99C1454.95,380.7,1406.34,332.41,1346.48,332.47z"></path></g></svg>